<?xml version="1.0" encoding="UTF-8"?>
<svg version="1.1" xmlns="http://www.w3.org/2000/svg" width="2000" height="355">
<path d="M0 0 C1.20273919 -0.01064158 1.20273919 -0.01064158 2.42977613 -0.02149814 C5.11402769 -0.03908723 7.79683297 -0.02096952 10.48106384 -0.00291443 C12.40632792 -0.00805287 14.33158729 -0.01533358 16.25683594 -0.02459717 C21.48409129 -0.04312764 26.71083727 -0.03016257 31.93807149 -0.01050687 C37.40548765 0.0058649 42.87287118 -0.0029311 48.34030151 -0.00802612 C57.52109425 -0.01254834 66.70168332 0.00333171 75.88243103 0.03126526 C86.5020255 0.06332719 97.12125282 0.0632981 107.7408734 0.04605049 C117.95137459 0.03019713 128.16174097 0.03691069 138.37223625 0.0539875 C142.72027098 0.06086647 147.06819791 0.0598169 151.41623116 0.05244255 C156.53401061 0.04479185 161.65137123 0.05686615 166.76907921 0.08429146 C168.64924501 0.09118878 170.52944983 0.09125889 172.40961456 0.08407593 C174.9723585 0.07541205 177.53380069 0.09128422 180.09643555 0.11352539 C180.84399945 0.10528462 181.59156335 0.09704386 182.3617807 0.08855337 C185.80072054 0.1438048 187.63809358 0.35606084 190.38094234 2.50936985 C192.14762398 4.84339984 193.60869962 7.18109624 195.01597595 9.74928284 C195.57268982 10.75579895 196.12940369 11.76231506 196.70298767 12.79933167 C197.2909613 13.87722961 197.87893494 14.95512756 198.48472595 16.06568909 C199.74697512 18.34996983 201.01000741 20.633818 202.27378845 22.91725159 C202.90188416 24.05581604 203.52997986 25.19438049 204.17710876 26.3674469 C206.69806587 30.91497568 209.27193194 35.43095319 211.85972595 39.94068909 C212.33748474 40.77495422 212.81524353 41.60921936 213.30747986 42.46876526 C214.86566954 45.18908558 216.42516337 47.90865564 217.98472595 50.62818909 C220.61150515 55.21050565 223.23666125 59.79374559 225.85972595 64.37818909 C226.1991925 64.97132904 226.53865906 65.56446899 226.88841248 66.17558289 C231.67874617 74.54900548 236.41384615 82.95131814 241.10972595 91.37818909 C246.20345975 100.51665013 251.42873443 109.56927861 256.72422791 118.59205627 C262.76880283 128.91640385 268.59594111 139.35935798 274.41441345 149.81227112 C277.06350074 154.56267112 279.7358416 159.29994528 282.40977478 164.03639221 C287.01111189 172.19958409 287.01111189 172.19958409 285.98472595 177.62818909 C284.87559509 179.98512268 284.87559509 179.98512268 283.3948822 182.58912659 C282.84840027 183.56132141 282.30191833 184.53351624 281.73887634 185.53517151 C280.8705719 187.06621521 280.8705719 187.06621521 279.98472595 188.62818909 C278.85757528 190.67257773 277.73261603 192.71817595 276.60972595 194.76490784 C269.94136098 206.8312982 263.17265477 218.82111115 256.18589783 230.70704651 C251.41809931 238.83549942 246.81145609 247.04739043 242.23008728 255.28199768 C238.27784186 262.36752999 234.22485195 269.38619898 230.10972595 276.37818909 C224.91421023 285.21290614 219.90843158 294.14042077 214.98472595 303.12818909 C209.83525352 312.52154031 204.61601645 321.86484475 199.23472595 331.12818909 C198.6623822 332.11883362 198.09003845 333.10947815 197.50035095 334.13014221 C190.69213347 345.77448533 190.69213347 345.77448533 186.98472595 347.62818909 C184.42685353 347.73678178 181.89555052 347.78481135 179.33694458 347.78881836 C178.5383873 347.79390618 177.73983001 347.798994 176.91707402 347.80423599 C174.22632893 347.82000192 171.53561076 347.82849638 168.84483337 347.83692932 C166.92163928 347.84646433 164.99844692 347.85635533 163.07525635 347.86657715 C156.74692327 347.897999 150.41857688 347.91823103 144.0901947 347.93678284 C143.01454451 347.94008016 141.93889431 347.94337748 140.83064866 347.94677472 C130.69172585 347.97755369 120.55280015 348.00426904 110.41384411 348.0211935 C97.43152786 348.04311617 84.44962439 348.08511823 71.46747321 348.15463108 C62.34641335 348.20181714 53.22546508 348.22611976 44.10428697 348.23339039 C38.65287437 348.23835429 33.2019267 348.25350555 27.75064659 348.29313469 C22.62300962 348.32991963 17.49610467 348.33843747 12.36836052 348.32512856 C10.48534979 348.32518264 8.60230729 348.33553318 6.71941757 348.35688019 C4.14987468 348.38445711 1.58302101 348.3751023 -0.98654175 348.35644531 C-1.73323917 348.37324024 -2.47993659 348.39003517 -3.2492612 348.40733904 C-6.08504476 348.35581684 -8.33629069 348.19532745 -10.56281602 346.33556473 C-13.15219344 343.28947381 -15.18913333 339.87760488 -17.10902405 336.38209534 C-17.93188904 334.89685364 -17.93188904 334.89685364 -18.77137756 333.38160706 C-19.3468634 332.32860413 -19.92234924 331.2756012 -20.51527405 330.19068909 C-21.76349557 327.93391511 -23.01220411 325.67741045 -24.2613678 323.42115784 C-24.8889801 322.28339905 -25.51659241 321.14564026 -26.16322327 319.97340393 C-28.93601826 314.96512065 -31.75481223 309.98331579 -34.57777405 305.00318909 C-35.65598976 303.09829251 -36.73411483 301.19334463 -37.81214905 299.28834534 C-38.34259827 298.35135803 -38.87304749 297.41437073 -39.41957092 296.44898987 C-41.00043215 293.65442582 -42.57861548 290.8583675 -44.15589905 288.06178284 C-50.3918322 277.00866361 -56.66818929 265.97941861 -62.97581482 254.96708679 C-67.74830392 246.63228615 -72.46548972 238.26826963 -77.14027405 229.87818909 C-81.80333954 221.51364507 -86.55527371 213.20704271 -91.39027405 204.94068909 C-91.97397766 203.94005432 -92.55768127 202.93941956 -93.15907288 201.90846252 C-95.62460057 197.68749606 -98.09981759 193.47487916 -100.6363678 189.29615784 C-101.01422424 188.66346985 -101.39208069 188.03078186 -101.78138733 187.37892151 C-102.73130479 185.78959391 -103.69480437 184.20840382 -104.6598053 182.62818909 C-106.84233287 177.7976958 -107.94624082 174.14950614 -106.09217834 169.12818909 C-104.65301034 166.22186706 -103.08651705 163.42977532 -101.45277405 160.62818909 C-100.86359192 159.58074524 -100.27440979 158.53330139 -99.66737366 157.45411682 C-97.80730351 154.16439583 -95.91627659 150.89440362 -94.01527405 147.62818909 C-93.431651 146.62030334 -92.84802795 145.6124176 -92.24671936 144.57398987 C-89.94879632 140.61023536 -87.64296427 136.65137904 -85.31971741 132.70240784 C-81.12053203 125.56373475 -77.04094729 118.36596725 -73.01527405 111.12818909 C-68.46274228 102.94619324 -63.82279106 94.82504949 -59.07777405 86.75318909 C-53.43927852 77.1576328 -48.00842434 67.45924097 -42.63197327 57.71485901 C-37.86529824 49.09903504 -32.9510199 40.57914113 -27.95301819 32.09571838 C-25.26988659 27.5320488 -22.62418995 22.95807469 -20.09339905 18.30787659 C-19.64391907 17.48231262 -19.19443909 16.65674866 -18.7313385 15.8061676 C-17.91191705 14.29015187 -17.09985529 12.77012109 -16.29725647 11.24513245 C-15.93478821 10.57361145 -15.57231995 9.90209045 -15.1988678 9.21022034 C-14.89521301 8.63505676 -14.59155823 8.05989319 -14.27870178 7.46730042 C-10.25172954 1.60542952 -7.00930596 -0.11130625 0 0 Z M1.98472595 11.62818909 C3.69103833 16.75437398 3.69103833 16.75437398 5.74058533 21.67408752 C6.07433167 22.40794678 6.408078 23.14180603 6.75193787 23.89790344 C7.10719543 24.66999146 7.462453 25.44207947 7.82847595 26.23756409 C8.19823547 27.04558472 8.567995 27.85360535 8.94895935 28.68611145 C9.72736704 30.3844891 10.50738515 32.08212947 11.28892517 33.77906799 C12.48610673 36.38119027 13.67512093 38.98694104 14.8636322 41.59303284 C15.62225555 43.24560218 16.38135359 44.89795372 17.14097595 46.55006409 C17.49623352 47.33024902 17.85149109 48.11043396 18.21751404 48.91426086 C20.12566369 53.08637896 20.12566369 53.08637896 22.98472595 56.62818909 C29.76289406 56.3272347 36.11623111 53.7793207 42.50035095 51.64772034 C44.38233688 51.02746553 46.26432302 50.40721139 48.14631844 49.7869854 C50.14082796 49.12842223 52.13435738 48.4669705 54.12760925 47.80461121 C58.26480416 46.42983767 62.40452966 45.06280711 66.54478455 43.69728088 C70.72386098 42.31863894 74.90282285 40.93966061 79.08088684 39.55795288 C90.03354653 35.93632519 100.99919371 32.3556582 111.97224426 28.79631042 C128.33700225 23.48744471 144.67763076 18.11191255 160.98472595 12.62818909 C160.98472595 12.29818909 160.98472595 11.96818909 160.98472595 11.62818909 C108.51472595 11.62818909 56.04472595 11.62818909 1.98472595 11.62818909 Z M174.38877869 19.02662659 C173.44731491 19.33597641 172.50585114 19.64532623 171.53585815 19.96405029 C170.50707047 20.30696609 169.47828278 20.6498819 168.4183197 21.00318909 C167.3377681 21.35919693 166.25721649 21.71520477 165.1439209 22.08200073 C162.79931224 22.85479715 160.45533824 23.6295211 158.11192322 24.40592957 C152.4834957 26.27041834 146.85133556 28.1235489 141.21878433 29.97553444 C139.92973137 30.39939556 138.64072776 30.82340676 137.35177231 31.24756432 C125.28401202 35.21798031 113.18966291 39.10230727 101.08360291 42.95429993 C85.37638985 47.95399011 69.67709966 52.97851841 54.02403259 58.14561462 C52.30417357 58.71249271 50.58348104 59.27684891 48.86192322 59.83854675 C46.52404302 60.60220689 44.18954833 61.3753878 41.8558197 62.15162659 C41.16685104 62.37480057 40.47788239 62.59797455 39.76803589 62.82791138 C36.17709321 63.83999765 36.17709321 63.83999765 33.98472595 66.62818909 C35.0527948 67.2749762 35.0527948 67.2749762 36.1424408 67.93482971 C53.46661206 78.42962593 70.74472876 88.99551136 87.98472595 99.62818909 C92.37990668 102.33758282 96.77574544 105.045905 101.17222595 107.75318909 C102.24899597 108.41625061 103.32576599 109.07931213 104.43516541 109.76246643 C112.49142411 114.71913335 120.5689794 119.64003989 128.65342712 124.55055237 C135.81727545 128.90630117 142.94891635 133.31219481 150.07188416 137.73439026 C156.52169332 141.73410761 162.99784351 145.68892781 169.48472595 149.62818909 C177.18952263 154.30874027 184.87948182 159.01214729 192.54722595 163.75318909 C193.40960876 164.2855719 194.27199158 164.81795471 195.1605072 165.36647034 C198.63451555 167.51836404 202.08388454 169.67708696 205.4495697 171.99537659 C207.76238506 173.80868161 207.76238506 173.80868161 209.98472595 173.62818909 C208.45054023 158.67760193 205.65963583 143.92642657 203.00150299 129.14497709 C202.47289232 126.20243395 201.94699721 123.25940807 201.42109871 120.31637919 C200.18104411 113.3768416 198.93685294 106.438055 197.68980408 99.49977112 C196.40644378 92.3591294 195.12941183 85.21737672 193.85554695 78.07503545 C192.75644209 71.91356885 191.65384136 65.7527352 190.5483532 59.59241068 C189.89027171 55.92519986 189.2334064 52.25778267 188.57975769 48.5897789 C187.85268155 44.5109936 187.1182855 40.43355929 186.38316345 36.35621643 C186.16907837 35.14992584 185.95499329 33.94363525 185.73442078 32.70079041 C185.53262207 31.58816833 185.33082336 30.47554626 185.12290955 29.32920837 C184.95036652 28.36735815 184.77782349 27.40550793 184.60005188 26.41451073 C183.93383645 23.397751 183.00823081 20.54123896 181.98472595 17.62818909 C179.00055423 17.62818909 177.19428206 18.09724445 174.38877869 19.02662659 Z M-8.01527405 19.62818909 C-9.46175401 21.91923688 -10.84334159 24.22312395 -12.20277405 26.56568909 C-12.64202209 27.31713196 -13.08127014 28.06857483 -13.53382874 28.8427887 C-17.97440293 36.48048438 -22.26554322 44.20135579 -26.56336975 51.91993713 C-30.58537903 59.12565473 -34.70420109 66.26674365 -38.89027405 73.37818909 C-44.44248658 82.8192964 -49.76794096 92.37252892 -55.02818298 101.97776794 C-59.7185805 110.53666308 -64.51288642 119.02218772 -69.45277405 127.44068909 C-70.02455383 128.416026 -70.59633362 129.39136292 -71.18544006 130.39625549 C-72.27948793 132.26132381 -73.37379662 134.12623915 -74.46839905 135.99098206 C-76.8119346 139.98638468 -79.14685917 143.9859431 -81.45277405 148.00318909 C-81.83683411 148.65779114 -82.22089417 149.31239319 -82.61659241 149.98683167 C-83.47873579 151.49996864 -84.25713112 153.0603581 -85.01527405 154.62818909 C-84.68527405 155.28818909 -84.35527405 155.94818909 -84.01527405 156.62818909 C-83.51189514 156.11957336 -83.00851624 155.61095764 -82.48988342 155.08692932 C-80.16775426 152.74378181 -77.84154635 150.40472307 -75.51527405 148.06568909 C-74.32804749 146.86589417 -74.32804749 146.86589417 -73.11683655 145.64186096 C-68.84221365 141.34971912 -64.49375849 137.23986502 -59.90003967 133.29249573 C-56.79286399 130.548763 -53.91373456 127.58893802 -51.01527405 124.62818909 C-43.78337727 117.31247736 -43.78337727 117.31247736 -40.07777405 114.19068909 C-35.98906232 110.73780294 -32.27792929 106.9274149 -28.51527405 103.12818909 C-24.21339763 98.78454181 -19.91219502 94.56770148 -15.23402405 90.62818909 C-11.16817362 86.96319715 -7.37630561 83.01164823 -3.52992249 79.11891174 C0.3139963 75.2449472 4.19656247 71.52685997 8.46910095 68.12037659 C10.6022022 66.02026144 11.79265355 64.40953356 12.98472595 61.62818909 C12.22205196 58.87555857 11.41298808 56.7644356 10.17222595 54.23756409 C9.8468988 53.5335144 9.52157166 52.82946472 9.18638611 52.1040802 C8.13927289 49.85205165 7.06232613 47.61576299 5.98472595 45.37818909 C5.28879322 43.88820002 4.59476158 42.39732144 3.9026947 40.90553284 C0.51854046 33.66015765 -3.00498385 26.55220576 -7.01527405 19.62818909 C-7.34527405 19.62818909 -7.67527405 19.62818909 -8.01527405 19.62818909 Z M197.98472595 39.62818909 C198.61493645 47.2251227 199.76071792 54.67066472 201.08604431 62.17457581 C201.2975563 63.38880722 201.5090683 64.60303864 201.72698975 65.85406494 C202.30272763 69.15373252 202.88174647 72.4527873 203.46269679 75.75153875 C203.94858988 78.51261953 204.43235704 81.27407123 204.91619879 84.03551209 C206.05724283 90.5471591 207.20228197 97.05809502 208.34971619 103.56861877 C209.53219704 110.27848124 210.7072751 116.98961138 211.87887472 123.70138156 C212.88757057 129.47818996 213.90111495 135.25413365 214.91849428 141.02941906 C215.5250374 144.47292945 216.12967534 147.91674713 216.7295208 151.36143112 C217.39730125 155.19493228 218.07517048 159.02661102 218.75401306 162.85816956 C218.95096771 163.99692032 219.14792236 165.13567108 219.35084534 166.30892944 C219.53726089 167.35174576 219.72367645 168.39456207 219.91574097 169.46897888 C220.15438071 170.82665532 220.15438071 170.82665532 220.39784145 172.21175957 C220.97633515 174.59364092 221.79691546 176.49291752 222.98472595 178.62818909 C232.54236517 178.01218817 241.62745459 175.80805797 250.92222595 173.62818909 C252.53733708 173.2552591 254.1525707 172.88285914 255.76792908 172.51100159 C257.30775271 172.1547062 258.84747029 171.79795209 260.3870697 171.44068909 C261.10579758 171.27399719 261.82452545 171.1073053 262.56503296 170.93556213 C265.42017215 170.26532894 268.20051104 169.55626072 270.98472595 168.62818909 C269.71028682 165.3077664 268.28998042 162.18659401 266.58628845 159.06568909 C266.11336365 158.19774719 265.64043884 157.3298053 265.15318298 156.43556213 C264.64384216 155.50912903 264.13450134 154.58269592 263.60972595 153.62818909 C263.07589294 152.65341614 262.54205994 151.67864319 261.99205017 150.67433167 C257.94813711 143.31706865 253.81152339 136.01601543 249.62779236 128.73756409 C245.69700561 121.89522466 241.83150108 115.01806912 237.98472595 108.12818909 C233.190507 99.54550847 228.35402817 90.98915795 223.46446228 82.46046448 C219.67299583 75.84420695 215.91844003 69.20765734 212.17222595 62.56568909 C206.97758903 53.36445962 206.97758903 53.36445962 201.73472595 44.19068909 C201.2139447 43.28447815 200.69316345 42.37826721 200.15660095 41.44459534 C199.7698822 40.84518127 199.38316345 40.24576721 198.98472595 39.62818909 C198.65472595 39.62818909 198.32472595 39.62818909 197.98472595 39.62818909 Z M25.98472595 74.62818909 C25.98472595 144.91818909 25.98472595 215.20818909 25.98472595 287.62818909 C29.34611738 286.28363252 32.30067728 285.00501733 35.4417572 283.30006409 C36.29406921 282.83753235 37.14638123 282.37500061 38.02452087 281.89845276 C38.93951355 281.39676575 39.85450623 280.89507874 40.79722595 280.37818909 C41.76571472 279.84878723 42.73420349 279.31938538 43.73204041 278.77394104 C51.79154082 274.34086003 59.73347324 269.72116998 67.66099548 265.05738831 C76.40704442 259.92710282 85.25661371 254.99699337 94.13023376 250.09156799 C103.51737158 244.89940003 112.84079323 239.60393993 122.1424408 234.26051331 C127.67009661 231.08598086 133.20168451 227.91832253 138.73472595 224.75318909 C139.32705017 224.41429657 139.91937439 224.07540405 140.52964783 223.72624207 C148.96943961 218.89950655 157.43382102 214.11908519 165.92222595 209.37818909 C173.81411679 204.97005524 181.69419821 200.54275976 189.54722595 196.06568909 C190.38568054 195.58905823 191.22413513 195.11242737 192.08799744 194.62135315 C197.13002245 191.73960998 202.08531732 188.74630128 206.98472595 185.62818909 C202.63144141 181.89805616 197.90688693 179.08540442 192.98472595 176.19068909 C185.90233537 171.98345652 178.85662017 167.7261918 171.85972595 163.37818909 C170.10453023 162.28832503 168.34932157 161.1984818 166.59410095 160.10865784 C165.68982361 159.54710999 164.78554626 158.98556213 163.85386658 158.40699768 C149.38477834 149.43645846 134.86760821 140.54452868 120.31724548 131.70655823 C113.15298055 127.35058098 106.02093875 122.94443369 98.89756775 118.52198792 C92.44775819 114.52227031 85.9715831 110.56749238 79.48472595 106.62818909 C72.0519825 102.11232899 64.63109322 97.57842454 57.23472595 93.00318909 C56.38483093 92.47765442 55.53493591 91.95211975 54.6592865 91.41065979 C50.2615563 88.68389047 45.88130974 85.93222239 41.5198822 83.14772034 C40.64235291 82.58842834 39.76482361 82.02913635 38.86070251 81.45289612 C37.18680273 80.38383212 35.51545311 79.31076167 33.84703064 78.23316956 C33.10485291 77.75895569 32.36267517 77.28474182 31.5980072 76.79615784 C30.94614441 76.37616516 30.29428162 75.95617249 29.62266541 75.52345276 C28.00333906 74.46831824 28.00333906 74.46831824 25.98472595 74.62818909 Z M10.7620697 79.78834534 C9.81304669 80.7534308 8.8665544 81.72100954 7.92222595 82.69068909 C4.75748779 85.92644522 1.57612137 89.01671089 -1.8551178 91.96803284 C-6.2959834 95.80996417 -10.4025889 99.94059164 -14.51527405 104.12818909 C-18.56475868 108.25143483 -22.59886353 112.32830609 -26.98402405 116.09693909 C-31.56706065 120.04006301 -35.77867494 124.31929306 -40.01527405 128.62818909 C-44.86167809 133.55729627 -49.74525023 138.31791119 -54.9879303 142.82350159 C-58.83525462 146.2482874 -62.4054209 149.95673435 -66.01527405 153.62818909 C-70.94095085 158.63792181 -75.8887202 163.52041134 -81.23988342 168.07765198 C-83.97082436 170.4627188 -86.48401371 173.03364724 -89.01527405 175.62818909 C-87.59453081 178.87380209 -85.87764723 180.99080499 -83.3473053 183.45631409 C-82.61834045 184.1743219 -81.88937561 184.89232971 -81.13832092 185.63209534 C-80.37584045 186.37330627 -79.61335999 187.11451721 -78.82777405 187.87818909 C-70.37532095 196.13270963 -70.37532095 196.13270963 -66.5894928 200.55006409 C-62.33059474 205.50787392 -57.66883209 210.04408714 -53.01527405 214.62818909 C-47.76519489 219.79990885 -42.64455633 224.97858118 -37.8473053 230.57350159 C-34.09838198 234.77805098 -30.02682815 238.67650893 -26.01527405 242.62818909 C-20.77210989 247.79309706 -15.65606491 252.96415756 -10.86488342 258.55152893 C-7.02377529 262.86415641 -2.86691322 266.87802748 1.23472595 270.94068909 C2.5805072 272.27970276 2.5805072 272.27970276 3.95347595 273.64576721 C5.60759307 275.29121755 7.26274146 276.93563236 8.91929626 278.57862854 C10.61161875 280.25794855 12.29889217 281.94235531 13.98472595 283.62818909 C13.98472595 215.64818909 13.98472595 147.66818909 13.98472595 77.62818909 C12.58767359 77.51203035 12.58767359 77.51203035 10.7620697 79.78834534 Z M263.83042908 180.30909729 C263.02279114 180.48290421 262.2151532 180.65671112 261.38304138 180.83578491 C260.08759399 181.1294117 260.08759399 181.1294117 258.76597595 181.42897034 C257.87108459 181.62540634 256.97619324 181.82184235 256.05418396 182.02423096 C254.16370966 182.44124674 252.27419762 182.86264545 250.38560486 183.2881012 C247.49776801 183.93775512 244.60688921 184.5721258 241.7151947 185.20436096 C239.87775464 185.61166071 238.04050812 186.01983479 236.20347595 186.42897034 C235.33984436 186.61864883 234.47621277 186.80832733 233.58641052 187.00375366 C232.77877258 187.18701706 231.97113464 187.37028046 231.13902283 187.55909729 C230.4316095 187.7175563 229.72419617 187.87601532 228.99534607 188.03927612 C228.33184143 188.2336174 227.66833679 188.42795868 226.98472595 188.62818909 C226.30091858 188.81523911 225.61711121 189.00228912 224.9125824 189.19500732 C219.49606091 193.22168672 218.61006608 203.78453159 217.14976501 210.02955627 C216.88437424 211.14595993 216.61898346 212.26236359 216.34555054 213.41259766 C215.47494467 217.08213448 214.61222793 220.75346801 213.75035095 224.42506409 C213.14709502 226.98242297 212.54363748 229.5397343 211.93998718 232.09700012 C210.67849683 237.445467 209.42198972 242.79508852 208.16783142 248.14527893 C206.71845327 254.32772416 205.2583317 260.50756398 203.79312921 266.6862762 C202.38130337 272.64204387 200.97965876 278.60016243 199.58194733 284.55925751 C198.98678576 287.09095537 198.38867483 289.62196173 197.78759003 292.15225983 C196.95035744 295.68099016 196.12475874 299.21224601 195.30210876 302.74440002 C195.05075668 303.79278549 194.7994046 304.84117096 194.54043579 305.92132568 C194.20822777 307.36367332 194.20822777 307.36367332 193.86930847 308.8351593 C193.67317585 309.66913113 193.47704323 310.50310295 193.27496719 311.36234665 C192.96803868 313.75846252 193.24023269 315.34835141 193.98472595 317.62818909 C194.33551208 316.99654846 194.68629822 316.36490784 195.04771423 315.71412659 C201.56385038 303.99479134 208.1259363 292.31290623 214.92222595 280.75318909 C220.56243607 271.15485341 225.99538186 261.45386628 231.37242126 251.70606995 C236.09025956 243.17686954 240.97060845 234.75426808 245.91514587 226.35499573 C250.36501122 218.76613201 254.59641936 211.07418934 258.77159119 203.33155823 C262.9459166 195.61959672 267.38162688 188.0907891 271.98472595 180.62818909 C268.95594649 179.68396598 266.91834015 179.62783054 263.83042908 180.30909729 Z M202.74253845 199.90943909 C201.85606628 200.41322083 200.96959412 200.91700256 200.05625916 201.43605042 C198.59772522 202.27365906 198.59772522 202.27365906 197.10972595 203.12818909 C196.09031921 203.70915344 195.07091248 204.2901178 194.02061462 204.88868713 C190.67299823 206.79782132 187.32886254 208.71296715 183.98472595 210.62818909 C181.72843467 211.91633341 179.47192328 213.20409228 177.2151947 214.49147034 C170.13544894 218.53193892 163.05976648 222.57948864 155.98472595 226.62818909 C151.21430116 229.35807041 146.44361879 232.08750004 141.67222595 234.81568909 C141.0871225 235.15025116 140.50201904 235.48481323 139.89918518 235.82951355 C131.17975847 240.81413247 122.44278119 245.7669407 113.69517517 250.70191956 C103.25050078 256.59883498 92.84071132 262.55657454 82.43103027 268.51493835 C78.73323177 270.63060841 75.03224637 272.740584 71.32867432 274.84613037 C68.83321774 276.264922 66.33869093 277.6853443 63.8441925 279.1058197 C62.11692939 280.08853189 60.38837859 281.06897971 58.65977478 282.04933167 C50.996294 286.41544698 43.46880965 290.96318432 35.98472595 295.62818909 C38.53174946 298.17521259 40.38552636 298.40207405 43.88145447 299.25367737 C45.76219917 299.71736221 45.76219917 299.71736221 47.68093872 300.19041443 C49.07514527 300.5265456 50.46937726 300.86257121 51.8636322 301.19850159 C53.32129284 301.55529542 54.77879375 301.91274235 56.23614502 302.27079773 C60.18332737 303.23869785 64.13257292 304.19790816 68.08234406 305.15518188 C72.19221756 306.15228197 76.30059777 307.1554939 80.40904236 308.15846252 C82.08134184 308.56667699 83.7536441 308.97488005 85.4259491 309.3830719 C86.26007576 309.58668335 87.09420242 309.7902948 87.95360565 310.00007629 C90.5138183 310.6246147 93.07429591 311.24805764 95.6348114 311.87135315 C106.39142597 314.49197882 117.13557201 317.15862568 127.87111473 319.86422348 C132.38137005 320.9997898 136.89330331 322.12867554 141.40515232 323.2578907 C144.98528319 324.15465287 148.56410786 325.05610967 152.14051819 325.96760559 C156.10347685 326.97748674 160.07111943 327.96760777 164.03941345 328.95631409 C165.21409683 329.25949554 166.38878021 329.562677 167.59906006 329.87504578 C168.6671843 330.13808502 169.73530853 330.40112427 170.83580017 330.6721344 C171.7636734 330.90652222 172.69154663 331.14091003 173.64753723 331.38240051 C176.25645843 331.90830304 176.25645843 331.90830304 178.98472595 329.62818909 C179.85640649 327.58172405 179.85640649 327.58172405 180.38926697 325.09864807 C180.63353928 324.10607498 180.87781158 323.11350189 181.12948608 322.09085083 C181.3923793 320.96750839 181.65527252 319.84416595 181.9261322 318.68678284 C182.21863358 317.47711349 182.51113495 316.26744415 182.8125 315.02111816 C183.68522457 311.40237876 184.53946871 307.77945904 185.39046478 304.15555573 C186.02308188 301.465063 186.65943105 298.77547174 187.2964325 296.08601379 C190.33995494 283.2284951 193.34796822 270.36289361 196.33946228 257.49317932 C197.67120294 251.76487867 199.01026311 246.03831411 200.35092831 240.3120966 C201.39008119 235.86837472 202.42429418 231.42351407 203.45710945 226.97831535 C203.94930877 224.8635879 204.44331085 222.74927916 204.93917656 220.6354084 C205.62615503 217.70457861 206.30618355 214.7722197 206.98448181 211.83937073 C207.29058632 210.54373451 207.29058632 210.54373451 207.60287476 209.22192383 C208.50575003 205.28664288 209.24908232 201.69730247 208.98472595 197.62818909 C206.33649154 197.62818909 205.04411922 198.59425008 202.74253845 199.90943909 Z M-76.01527405 207.62818909 C-74.55376742 211.52195136 -72.7536932 215.08381775 -70.74183655 218.72193909 C-70.42234039 219.3011763 -70.10284424 219.88041351 -69.77366638 220.47720337 C-68.73234455 222.36262342 -67.68654097 224.24550931 -66.64027405 226.12818909 C-65.90974277 227.44708349 -65.17927464 228.76601287 -64.4488678 230.0849762 C-58.92632589 240.04401508 -53.31201361 249.9483506 -47.63148499 259.81813049 C-44.45938871 265.33336133 -41.29939353 270.85551911 -38.14027405 276.37818909 C-37.8022879 276.96870056 -37.46430176 277.55921204 -37.11607361 278.1676178 C-32.21703301 286.72950205 -27.37915928 295.32354215 -22.57777405 303.94068909 C-17.56023227 312.94387111 -12.41233131 321.84726258 -7.01527405 330.62818909 C-3.43222833 326.439675 -0.74493163 321.95104647 1.98472595 317.19068909 C6.79064393 308.85314957 6.79064393 308.85314957 9.2542572 305.27272034 C11.13198675 302.72821865 11.13198675 302.72821865 11.67222595 299.75318909 C9.80521551 291.26677798 -0.54876548 284.01030574 -6.51527405 278.12818909 C-16.67656203 268.11062512 -16.67656203 268.11062512 -20.45277405 263.69068909 C-25.15509871 258.2000172 -30.37305692 253.20147129 -35.51527405 248.12818909 C-41.2540122 242.46638263 -46.93681073 236.83007513 -52.17835999 230.69654846 C-55.7691418 226.65333959 -59.62944966 222.8664446 -63.46058655 219.05250549 C-64.91231359 217.60623234 -66.35849855 216.15456591 -67.80433655 214.70240784 C-68.7169928 213.79104065 -69.62964905 212.87967346 -70.56996155 211.94068909 C-71.39995667 211.1118219 -72.22995178 210.28295471 -73.08509827 209.42897034 C-74.69717729 207.51449355 -74.69717729 207.51449355 -76.01527405 207.62818909 Z M20.5901947 306.93678284 C17.09721776 311.59089799 14.22323846 316.67040715 11.29722595 321.69068909 C10.7165033 322.67102112 10.13578064 323.65135315 9.53746033 324.66139221 C7.0090332 328.96702592 4.84835137 332.96912555 2.98472595 337.62818909 C52.81472595 337.62818909 102.64472595 337.62818909 153.98472595 337.62818909 C150.81333778 335.51393031 148.52474331 334.8636393 144.84410095 333.95509338 C143.56572861 333.63639786 142.28735626 333.31770233 140.97024536 332.98934937 C139.55842247 332.64363313 138.14658213 332.29798813 136.73472595 331.95240784 C135.2624047 331.58733803 133.79022424 331.22169997 132.31817627 330.85552979 C128.36131691 329.87265261 124.4027954 328.89663451 120.44392776 327.92188263 C113.87848772 326.30350087 107.31620376 324.67232481 100.75339699 323.04330444 C99.0990587 322.63278803 97.44465851 322.22252103 95.79019737 321.8125 C84.85974597 319.10360559 73.94046311 316.35593829 63.0355072 313.54615784 C61.84295319 313.23927536 60.65039917 312.93239288 59.42170715 312.61621094 C54.96369414 311.46787815 50.50605547 310.31829625 46.05137634 309.15708923 C43.06816983 308.37951007 40.0832665 307.60877953 37.0980072 306.83912659 C36.2367775 306.61190414 35.37554779 306.3846817 34.48822021 306.15057373 C27.04391483 303.84519853 27.04391483 303.84519853 20.5901947 306.93678284 Z " fill="#323332" transform="translate(127.01527404785156,3.3718109130859375)"/>
<path d="M0 0 C10.23 0 20.46 0 31 0 C36.43371901 13.151175 41.76118903 26.32550686 46.890625 39.59765625 C47.31534592 40.69645615 47.74006683 41.79525604 48.17765808 42.92735291 C50.33288401 48.50830752 52.48161434 54.09169733 54.62426758 59.67749023 C55.4278525 61.76417735 56.2314802 63.85084799 57.03515625 65.9375 C57.40558044 66.90828995 57.77600464 67.8790799 58.15765381 68.87928772 C58.50273987 69.77377121 58.84782593 70.6682547 59.20336914 71.58984375 C59.65323936 72.76341431 59.65323936 72.76341431 60.11219788 73.96069336 C61.03423993 76.24253925 61.03423993 76.24253925 63 79 C63.67035278 77.22230225 63.67035278 77.22230225 64.35424805 75.40869141 C73.84316372 50.24929821 83.37694425 25.10843282 93 0 C103.23 0 113.46 0 124 0 C126.08812439 16.37629604 128.17469835 32.75278708 130.25842285 49.12964344 C131.22595111 56.73345035 132.1941827 64.33716647 133.1640625 71.94067383 C134.00926859 78.5667985 134.85316277 85.19308869 135.69547272 91.81958216 C136.14163823 95.32921989 136.58846654 98.83877039 137.03686523 102.34812355 C137.53703196 106.26282996 138.03427004 110.17790526 138.53125 114.09301758 C138.68086182 115.2604248 138.83047363 116.42783203 138.98461914 117.63061523 C139.11924561 118.69492264 139.25387207 119.75923004 139.39257812 120.85578918 C139.51056763 121.78219113 139.62855713 122.70859308 139.75012207 123.66306782 C140 126 140 126 140 129 C130.43 129 120.86 129 111 129 C109.84037987 123.20189937 108.74925705 117.74198084 108.05444336 111.9296875 C107.8976561 110.63554932 107.74086884 109.34141113 107.57933044 108.00805664 C107.49953886 107.33420929 107.41974728 106.66036194 107.33753777 105.96609497 C107.08455731 103.83037057 106.82663274 101.69529133 106.56752014 99.56030273 C106.01987202 95.04071532 105.47828814 90.52041264 104.9375 86 C104.30687901 80.73027694 103.67375426 75.46087771 103.03445625 70.19219971 C102.78049587 68.08860948 102.5310217 65.98451812 102.28172302 63.88037109 C102.05127037 61.97698975 102.05127037 61.97698975 101.81616211 60.03515625 C101.61536293 58.35498413 101.61536293 58.35498413 101.4105072 56.64086914 C101.14195956 54.03014982 101.14195956 54.03014982 100 52 C99.72073669 52.83192368 99.44147339 53.66384735 99.15374756 54.52098083 C96.51044419 62.39278713 93.86292693 70.26316098 91.21076584 78.13198757 C89.84768533 82.17666055 88.48619258 86.22185302 87.12841797 90.26831055 C85.8159956 94.17940979 84.49928577 98.08904209 83.17969513 101.99772835 C82.67907643 103.48300662 82.179958 104.9687915 81.68242645 106.45510674 C80.98082825 108.55016114 80.27372723 110.64328652 79.56542969 112.73608398 C79.1657196 113.92411118 78.76600952 115.11213837 78.35418701 116.33616638 C76.76530164 120.63499038 74.8613572 124.81194629 73 129 C66.4 129 59.8 129 53 129 C49.42530626 120.53467588 46.04943369 112.01850717 42.8046875 103.421875 C42.32594451 102.15775242 41.84702848 100.89369535 41.36795044 99.62969971 C40.12126754 96.33904245 38.87696257 93.04749122 37.63317871 89.7557373 C36.37025294 86.41470794 35.10490942 83.07459454 33.83984375 79.734375 C26.44522651 60.20514842 26.44522651 60.20514842 23 51 C19.4541271 76.97335987 16.22760181 102.98552939 13 129 C3.43 129 -6.14 129 -16 129 C-13.39694813 105.95479949 -10.553247 82.94084851 -7.70166016 59.92529297 C-7.00632216 54.31284844 -6.31313396 48.70014066 -5.62051201 43.08736038 C-5.08266711 38.73096627 -4.54363397 34.37471981 -4.00424576 30.01851654 C-3.74790219 27.94695528 -3.49194351 25.87534635 -3.23638535 23.80368805 C-2.8813049 20.92658977 -2.52460367 18.0496969 -2.16748047 15.17285156 C-2.06358002 14.32824875 -1.95967957 13.48364594 -1.85263062 12.6134491 C-1.75462158 11.82660233 -1.65661255 11.03975555 -1.55563354 10.22906494 C-1.47195967 9.55305363 -1.38828579 8.87704231 -1.30207634 8.18054581 C-0.92318261 5.44549171 -0.4539342 2.72360517 0 0 Z " fill="#1A4470" transform="translate(866,38)"/>
<path d="M0 0 C12.93837951 10.8757393 19.63513156 27.06359453 21.5 43.5625 C21.6237051 45.1861295 21.72829771 46.81134328 21.8125 48.4375 C21.85375 49.21351562 21.895 49.98953125 21.9375 50.7890625 C22.38334493 67.89836182 17.7997166 83.55340216 7.8125 97.4375 C7.07 98.489375 6.3275 99.54125 5.5625 100.625 C-7.46555933 113.94915159 -23.66719946 119.34065201 -41.92211914 119.84204102 C-61.11549084 120.04347965 -78.63309169 116.53621903 -92.94140625 102.77734375 C-106.29561141 88.86574568 -111.79690893 72.22735702 -111.625 53.125 C-111.61742676 51.94091553 -111.60985352 50.75683105 -111.60205078 49.53686523 C-111.25329576 30.97520662 -105.51814764 15.60269634 -92.1875 2.4375 C-91.64609375 1.87417969 -91.1046875 1.31085937 -90.546875 0.73046875 C-67.21800179 -21.59691243 -24.41020445 -17.81082506 0 0 Z M-72.1875 24.4375 C-79.95893382 35.65669223 -81.72095684 50.29297937 -79.4375 63.5 C-76.87169551 74.54866833 -72.41248579 83.8253568 -62.51953125 90.140625 C-53.35802873 94.84993501 -44.10295926 95.95212419 -34 93.375 C-25.38844788 90.38929333 -19.74223035 84.89444693 -15.40234375 76.99609375 C-9.32251444 64.19130856 -8.24018378 49.87810679 -12.140625 36.2265625 C-16.01617788 25.9013955 -22.4816442 18.5714855 -32.1875 13.4375 C-47.1384068 7.39963379 -61.98235088 12.73756412 -72.1875 24.4375 Z " fill="#1A4470" transform="translate(817.1875,49.5625)"/>
<path d="M0 0 C77.61636829 0 77.61636829 0 89.5859375 11.52734375 C97.25807671 19.77957153 98.33545902 29.62169848 98.2109375 40.5546875 C97.525936 51.74304536 93.87796123 60.81259252 85.5 68.375 C81.66915394 71.42611633 78.02026667 74 73 74 C78.02772918 82.26460792 83.17417695 90.38621965 88.8125 98.25 C93.44217375 104.71694244 97.89914215 111.27952289 102.25 117.9375 C102.82339111 118.80858398 103.39678223 119.67966797 103.98754883 120.57714844 C104.51243896 121.38571289 105.0373291 122.19427734 105.578125 123.02734375 C106.04637695 123.74656006 106.51462891 124.46577637 106.99707031 125.20678711 C108 127 108 127 108 129 C99.39529676 129.69141138 90.80584883 130.12241127 82.171875 129.8984375 C81.4473111 129.89992294 80.72274719 129.90140839 79.97622681 129.90293884 C75.90355905 129.73782749 73.47281445 128.94621033 70.5390625 126.23046875 C68.47068443 123.95297833 67.03930849 121.92918439 66.078125 118.9765625 C63.78394675 113.0230956 60.23405428 107.90252564 56.72808838 102.61251831 C54.96659987 99.93773217 53.25557354 97.23113325 51.5390625 94.52734375 C50.58628418 93.07497314 50.58628418 93.07497314 49.61425781 91.59326172 C48 89 48 89 47.12792969 86.95751953 C46.38800841 85.01652278 46.38800841 85.01652278 44 83 C37.07 82.505 37.07 82.505 30 82 C30 97.51 30 113.02 30 129 C20.1 129 10.2 129 0 129 C0 86.43 0 43.86 0 0 Z M30 24 C30 35.88 30 47.76 30 60 C46.64723214 61.34493823 46.64723214 61.34493823 61.6640625 55.5703125 C66.60871503 50.01793731 66.33966197 44.4808893 66.28125 37.3984375 C65.90588138 32.8627334 65.18987326 31.18987326 62 28 C55.56557233 23.08951572 47.83410574 23.8701273 40.125 23.9375 C35.113125 23.9684375 35.113125 23.9684375 30 24 Z " fill="#1A4570" transform="translate(592,38)"/>
<path d="M0 0 C11.55 0 23.1 0 35 0 C36.40894531 2.75730469 37.81789063 5.51460937 39.26953125 8.35546875 C40.63931114 11.03317351 42.00969008 13.71057088 43.38012695 16.38793945 C44.33029814 18.2450407 45.27984882 20.10245958 46.22875977 21.96020508 C47.59487473 24.63446994 48.96323649 27.30757472 50.33203125 29.98046875 C50.96501884 31.2213752 50.96501884 31.2213752 51.61079407 32.48735046 C54.71269451 39.76107103 54.71269451 39.76107103 60 45 C60.24097412 44.19280518 60.48194824 43.38561035 60.73022461 42.55395508 C62.27535706 38.22930731 64.2501927 34.23222653 66.31640625 30.13671875 C66.73292953 29.3041304 67.14945282 28.47154205 67.57859802 27.61372375 C68.45504182 25.8638451 69.33341998 24.11493409 70.21362305 22.36694336 C71.56568247 19.68117826 72.911235 16.99222827 74.25585938 14.30273438 C75.10899629 12.60137254 75.96249899 10.90019407 76.81640625 9.19921875 C77.22057266 8.39199875 77.62473907 7.58477875 78.04115295 6.75309753 C80.8839142 1.1160858 80.8839142 1.1160858 82 0 C84.44830426 -0.08843793 86.86820599 -0.11528752 89.31640625 -0.09765625 C90.41298805 -0.09553383 90.41298805 -0.09553383 91.53172302 -0.09336853 C93.87535632 -0.08775408 96.21889539 -0.07519922 98.5625 -0.0625 C100.14778508 -0.05748686 101.73307166 -0.05292363 103.31835938 -0.04882812 C107.2122761 -0.03777997 111.10612205 -0.02050572 115 0 C114.42580512 3.54430247 113.51975863 6.25813119 111.76953125 9.38671875 C111.06981201 10.65165161 111.06981201 10.65165161 110.35595703 11.94213867 C109.5919458 13.30109253 109.5919458 13.30109253 108.8125 14.6875 C107.72180686 16.65577956 106.63200138 18.62455121 105.54296875 20.59375 C104.67937744 22.15029297 104.67937744 22.15029297 103.79833984 23.73828125 C100.69648095 29.36424309 97.66304214 35.02689886 94.625 40.6875 C93.49252084 42.79575201 92.35971972 44.90383111 91.2265625 47.01171875 C90.69708008 48.0073584 90.16759766 49.00299805 89.62207031 50.02880859 C88.516207 52.05444925 87.36751204 54.05714873 86.18261719 56.03759766 C85.61446289 57.00101074 85.04630859 57.96442383 84.4609375 58.95703125 C83.68049072 60.23477417 83.68049072 60.23477417 82.88427734 61.53833008 C81.75401415 63.96517706 81.75401415 63.96517706 82.60498047 66.39770508 C84.28737795 69.53608008 86.02707124 72.6271603 87.859375 75.6796875 C88.24076126 76.32122269 88.62214752 76.96275787 89.01509094 77.62373352 C90.25654576 79.70960661 91.50322093 81.79230581 92.75 83.875 C93.60757664 85.31406829 94.46491545 86.75327832 95.32202148 88.19262695 C101.07603109 97.84277736 106.88911871 107.45620222 112.80957031 117.00537109 C113.33776367 117.86340332 113.86595703 118.72143555 114.41015625 119.60546875 C114.86527588 120.33918701 115.32039551 121.07290527 115.78930664 121.82885742 C117 124 117 124 119 129 C107.12 129 95.24 129 83 129 C77.1875 118.25 77.1875 118.25 75.26953125 114.70166016 C72.43283303 109.46202251 69.58242867 104.23116245 66.6875 99.0234375 C66.18065674 98.11045898 65.67381348 97.19748047 65.15161133 96.25683594 C64.18890633 94.52631069 63.22269484 92.79773065 62.25268555 91.07128906 C61.60746948 89.91064941 61.60746948 89.91064941 60.94921875 88.7265625 C60.57112061 88.05189941 60.19302246 87.37723633 59.8034668 86.68212891 C59 85 59 85 59 83 C56.59787128 85.18920063 55.18231031 87.27246055 53.74755859 90.18017578 C53.33057709 91.01759308 52.91359558 91.85501038 52.48397827 92.71780396 C51.82288559 94.06792068 51.82288559 94.06792068 51.1484375 95.4453125 C50.68893707 96.37092987 50.22943665 97.29654724 49.75601196 98.25021362 C48.28997375 101.20569306 46.83212794 104.16511881 45.375 107.125 C43.90934879 110.09131306 42.44200602 113.05677238 40.9725647 116.02120972 C40.05856143 117.86625436 39.1470228 119.71252229 38.23812866 121.56008911 C37.82745148 122.39120209 37.41677429 123.22231506 36.99365234 124.07861328 C36.63185883 124.81346954 36.27006531 125.54832581 35.89730835 126.30545044 C35 128 35 128 34 129 C31.47905924 129.08847743 28.98569107 129.11527301 26.46484375 129.09765625 C25.33496788 129.09553383 25.33496788 129.09553383 24.18226624 129.09336853 C21.7673044 129.08775376 19.35243399 129.07519883 16.9375 129.0625 C15.30403779 129.0574869 13.67057414 129.05292366 12.03710938 129.04882812 C8.02470415 129.03777954 4.01236759 129.02050506 0 129 C5.00946128 118.86786431 10.13240735 108.79585653 15.3125 98.75 C15.6340506 98.12526794 15.9556012 97.50053589 16.28689575 96.85687256 C19.58253122 90.46034232 22.91242694 84.0920683 26.44921875 77.82421875 C26.96766357 76.90479492 27.4861084 75.98537109 28.02026367 75.03808594 C28.98160537 73.34856082 29.95385711 71.66518045 30.9387207 69.98925781 C31.36113037 69.24901367 31.78354004 68.50876953 32.21875 67.74609375 C32.58935547 67.11372803 32.95996094 66.4813623 33.34179688 65.82983398 C34.21141226 63.4122645 33.90114258 62.39776728 33 60 C32.08459341 58.15826186 31.11518879 56.34302362 30.11328125 54.546875 C29.51104736 53.46374023 28.90881348 52.38060547 28.28833008 51.26464844 C27.62997787 50.09295406 26.97136169 48.92140796 26.3125 47.75 C25.63877756 46.54467373 24.96519528 45.33926911 24.29174805 44.13378906 C18.62403889 34.01343735 12.80460239 23.98352244 6.92578125 13.984375 C6.42256348 13.12650391 5.9193457 12.26863281 5.40087891 11.38476562 C4.51143095 9.87062696 3.61830084 8.35864056 2.72021484 6.84960938 C0 2.22178876 0 2.22178876 0 0 Z " fill="#1A4470" transform="translate(1422,38)"/>
<path d="M0 0 C1.64510941 0.00015915 3.29022379 0.00585551 4.93530273 0.01586914 C6.23164894 0.01799156 6.23164894 0.01799156 7.55418396 0.02015686 C10.32578941 0.025773 13.09731528 0.0383282 15.86889648 0.05102539 C17.74324428 0.05603831 19.61759334 0.06060158 21.49194336 0.06469727 C26.09679192 0.07574767 30.70158069 0.09302309 35.30639648 0.11352539 C38.31001402 9.23733721 41.30969488 18.36244002 44.30639648 27.48852539 C44.53098164 28.17244606 44.75556679 28.85636673 44.98695755 29.56101227 C52.15053995 51.37958478 59.22854894 73.22347733 66.19116211 95.10717773 C66.4983316 96.0720108 66.8055011 97.03684387 67.12197876 98.03091431 C67.70974676 99.87723628 68.29698842 101.72372592 68.88363647 103.57040405 C70.17629486 107.62722926 71.48644783 111.67591479 72.85375977 115.70825195 C73.09067032 116.40725616 73.32758087 117.10626038 73.57167053 117.82644653 C74.19648303 119.65837066 74.82839475 121.48786933 75.4609375 123.31713867 C76.30639648 126.11352539 76.30639648 126.11352539 76.30639648 129.11352539 C66.07639648 129.11352539 55.84639648 129.11352539 45.30639648 129.11352539 C42.12253306 120.62322293 39.73329656 111.85036568 37.30639648 103.11352539 C22.45639648 102.78352539 7.60639648 102.45352539 -7.69360352 102.11352539 C-8.35360352 105.08352539 -9.01360352 108.05352539 -9.69360352 111.11352539 C-10.10660933 112.72336621 -10.53235044 114.3301263 -10.98266602 115.92993164 C-11.18069824 116.63835205 -11.37873047 117.34677246 -11.58276367 118.07666016 C-11.82559082 118.93445068 -12.06841797 119.79224121 -12.31860352 120.67602539 C-13.10235352 123.46040039 -13.88610352 126.24477539 -14.69360352 129.11352539 C-24.92360352 129.11352539 -35.15360352 129.11352539 -45.69360352 129.11352539 C-44.32326776 122.94701449 -42.84689143 117.13378855 -40.85546875 111.18261719 C-40.57702621 110.33870422 -40.29858368 109.49479126 -40.01170349 108.62530518 C-39.09594514 105.85308379 -38.17406098 103.08294061 -37.25219727 100.31274414 C-36.60359238 98.35258023 -35.95541218 96.39227575 -35.30763245 94.43183899 C-33.60021131 89.26779321 -31.88775913 84.10543056 -30.17401123 78.94348145 C-27.46132369 70.76969841 -24.75635762 62.59335473 -22.05089188 54.41717911 C-21.07109821 51.4570823 -20.09029774 48.4973203 -19.10946655 45.53756714 C-16.29278892 37.03100746 -13.4870409 28.52174761 -10.7565918 19.98706055 C-10.53968343 19.30908952 -10.32277506 18.63111849 -10.09929371 17.93260288 C-9.12538898 14.88348708 -8.15723993 11.83265933 -7.19541931 8.77970886 C-6.87263504 7.76169693 -6.54985077 6.743685 -6.21728516 5.69482422 C-5.94372696 4.82416824 -5.67016876 3.95351227 -5.38832092 3.05647278 C-4.16905266 -0.35350955 -3.98581302 0.12250665 0 0 Z M14.30639648 26.11352539 C12.16638914 33.33897463 10.0305706 40.56565227 7.89770508 47.79321289 C7.1711386 50.25346126 6.44360203 52.71342336 5.71508789 55.1730957 C4.67007323 58.70197515 3.62851456 62.23185849 2.58764648 65.76196289 C2.25953979 66.86720306 1.93143311 67.97244324 1.59338379 69.11117554 C1.29307251 70.13208282 0.99276123 71.15299011 0.68334961 72.20483398 C0.41687622 73.10640228 0.15040283 74.00797058 -0.12414551 74.93685913 C-0.77797051 77.061018 -0.77797051 77.061018 -0.69360352 79.11352539 C9.53639648 79.11352539 19.76639648 79.11352539 30.30639648 79.11352539 C29.69069359 74.80360514 29.16339776 71.17544247 27.99951172 67.09619141 C27.73931747 66.17576553 27.47912323 65.25533966 27.21104431 64.30702209 C26.93184647 63.33695724 26.65264862 62.3668924 26.36499023 61.36743164 C26.0778566 60.35631821 25.79072296 59.34520477 25.49488831 58.30345154 C24.58215841 55.09307617 23.66312528 51.88454526 22.74389648 48.67602539 C22.12173389 46.49189957 21.49998459 44.30765597 20.87866211 42.12329102 C19.35935617 36.78532955 17.83487925 31.44886594 16.30639648 26.11352539 C15.64639648 26.11352539 14.98639648 26.11352539 14.30639648 26.11352539 Z " fill="#1A4470" transform="translate(1838.693603515625,37.886474609375)"/>
<path d="M0 0 C28.38 0 56.76 0 86 0 C86 8.25 86 16.5 86 25 C67.52 25 49.04 25 30 25 C30 33.91 30 42.82 30 52 C47.49 52 64.98 52 83 52 C83 59.92 83 67.84 83 76 C65.51 76 48.02 76 30 76 C30 85.24 30 94.48 30 104 C48.81 104 67.62 104 87 104 C87 112.25 87 120.5 87 129 C58.29 129 29.58 129 0 129 C0 86.43 0 43.86 0 0 Z " fill="#1A4471" transform="translate(1557,38)"/>
<path d="M0 0 C78.72702442 0 78.72702442 0 90.5390625 11.20703125 C97.3600281 19.5782163 99.3873825 29.73435748 99.3125 40.25 C99.30686035 41.08192871 99.3012207 41.91385742 99.29541016 42.77099609 C99.06148166 54.71524625 96.44987204 64.14190821 88.1484375 72.96875 C76.13819189 84.26125185 61.48903768 84.29922596 45.875 84.125 C40.63625 84.08375 35.3975 84.0425 30 84 C30 98.85 30 113.7 30 129 C20.1 129 10.2 129 0 129 C0 86.43 0 43.86 0 0 Z M30 24 C30 36.21 30 48.42 30 61 C34.888125 61.0928125 34.888125 61.0928125 39.875 61.1875 C40.88030762 61.21481201 41.88561523 61.24212402 42.92138672 61.27026367 C49.79929975 61.33252237 57.59183966 61.00727454 62.97802734 56.25463867 C67.90095707 50.80300601 68.29301182 46.14936661 68.21484375 38.94921875 C67.85315155 33.9841713 66.22123947 31.25613203 62.8125 27.75 C55.89556218 23.44612758 48.37895518 23.74163842 40.5 23.875 C35.3025 23.936875 35.3025 23.936875 30 24 Z " fill="#1A4470" transform="translate(1026,38)"/>
<path d="M0 0 C77.96793567 0 77.96793567 0 90.90234375 12.5859375 C99.04591659 21.95787049 99.51790594 34.84033827 98.72851562 46.70092773 C97.74491053 57.74040463 94.36142041 66.98810818 86.22265625 74.6796875 C77.30651568 82.00952086 66.48581047 84.18237167 55.1953125 84.09765625 C54.55263428 84.09664917 53.90995605 84.09564209 53.24780273 84.09460449 C50.8735167 84.08941801 48.49925634 84.07545716 46.125 84.0625 C40.80375 84.041875 35.4825 84.02125 30 84 C30 98.85 30 113.7 30 129 C20.1 129 10.2 129 0 129 C0 86.43 0 43.86 0 0 Z M30 24 C30 36.21 30 48.42 30 61 C34.888125 61.0928125 34.888125 61.0928125 39.875 61.1875 C40.88030762 61.21481201 41.88561523 61.24212402 42.92138672 61.27026367 C49.58331004 61.33056724 57.16998513 60.95072658 62.65576172 56.72436523 C66.68801705 52.30177352 67.78544676 47.36008566 68.3125 41.5625 C67.82891325 36.04961102 66.60296158 31.74035829 62.8125 27.625 C55.76644537 23.55394622 48.40309479 23.74122982 40.5 23.875 C35.3025 23.936875 35.3025 23.936875 30 24 Z " fill="#1A4470" transform="translate(1258,38)"/>
<path d="M0 0 C77.80762987 0 77.80762987 0 90.125 11.85546875 C92.85073775 14.9730313 94.63492835 18.10282653 96 22 C96.35449219 23.00675781 96.70898438 24.01351562 97.07421875 25.05078125 C100.41872077 37.11825785 99.57885732 53.75975789 94 65 C88.71997882 73.98697906 81.10566967 79.39089361 71.23828125 82.45703125 C65.87049318 83.75916483 60.70302999 84.13898203 55.1953125 84.09765625 C54.55263428 84.09664917 53.90995605 84.09564209 53.24780273 84.09460449 C50.8735167 84.08941801 48.49925634 84.07545716 46.125 84.0625 C40.80375 84.041875 35.4825 84.02125 30 84 C30 98.85 30 113.7 30 129 C20.1 129 10.2 129 0 129 C0 86.43 0 43.86 0 0 Z M30 24 C30 36.21 30 48.42 30 61 C33.135 61.04125 36.27 61.0825 39.5 61.125 C40.47130859 61.14320801 41.44261719 61.16141602 42.44335938 61.18017578 C50.522451 61.23112205 57.57641569 60.37788454 64 55 C68.09202043 49.07362558 68.51311481 42.13000035 67.375 35.1875 C65.50668165 30.85639837 63.00605588 28.2942296 59.0625 25.75 C52.94258417 23.52457606 46.53619588 23.88147021 40.125 23.9375 C35.113125 23.9684375 35.113125 23.9684375 30 24 Z " fill="#1B4571" transform="translate(476,38)"/>
<path d="M0 0 C35.64 0 71.28 0 108 0 C108 8.91 108 17.82 108 27 C95.13 27 82.26 27 69 27 C69 60.66 69 94.32 69 129 C59.1 129 49.2 129 39 129 C39 95.34 39 61.68 39 27 C26.13 27 13.26 27 0 27 C0 18.09 0 9.18 0 0 Z " fill="#1A4471" transform="translate(1134,38)"/>
<path d="M0 0 C9.9 0 19.8 0 30 0 C30 33.66 30 67.32 30 102 C48.81 102 67.62 102 87 102 C87 110.91 87 119.82 87 129 C58.29 129 29.58 129 0 129 C0 86.43 0 43.86 0 0 Z " fill="#1A4470" transform="translate(1664,38)"/>
<path d="M0 0 C10.23 0 20.46 0 31 0 C31 42.57 31 85.14 31 129 C20.77 129 10.54 129 0 129 C0 86.43 0 43.86 0 0 Z " fill="#1A4470" transform="translate(1931,38)"/>
<path d="M0 0 C10.23 0 20.46 0 31 0 C31 42.57 31 85.14 31 129 C20.77 129 10.54 129 0 129 C0 86.43 0 43.86 0 0 Z " fill="#1A4470" transform="translate(1374,38)"/>
<path d="M0 0 C4.62 0 9.24 0 14 0 C21.92 18.48 29.84 36.96 38 56 C38 37.52 38 19.04 38 0 C41.3 0 44.6 0 48 0 C48 24.09 48 48.18 48 73 C43.71 73 39.42 73 35 73 C31.50314023 66.15772991 28.3176515 59.267956 25.35546875 52.1796875 C24.98699829 51.30513916 24.61852783 50.43059082 24.2388916 49.52954102 C22.88477247 46.312897 21.53646073 43.0938107 20.1875 39.875 C17.155625 32.65625 14.12375 25.4375 11 18 C10.67 36.15 10.34 54.3 10 73 C6.7 73 3.4 73 0 73 C0 48.91 0 24.82 0 0 Z " fill="#3A4031" transform="translate(1552,233)"/>
<path d="M0 0 C6.37659644 5.78798754 9.7077011 12.65153493 10.17700195 21.23876953 C10.23181901 24.49852808 10.27655617 27.7574376 10.29516602 31.01757812 C10.3066345 32.41188751 10.32700459 33.80615478 10.35668945 35.20019531 C10.58144408 45.78249703 9.77455548 55.17463425 3.3125 63.9375 C-2.03582819 69.47208837 -7.91884448 71.22576917 -15.5 71.5 C-23.61320293 71.19740968 -29.22039185 69.21449726 -34.875 63.3125 C-41.77566434 55.52841727 -41.47596242 45.52617428 -41.39111328 35.71630859 C-41.37503094 33.50425554 -41.39102387 31.29402887 -41.41015625 29.08203125 C-41.42933349 17.6724586 -40.31810946 9.35908373 -32.15625 0.88671875 C-23.61494263 -6.5869252 -9.18331383 -6.32628286 0 0 Z M-27.35546875 10.6875 C-31.69587545 17.95807295 -31.21518091 25.02399048 -31.25 33.25 C-31.270625 34.45269531 -31.29125 35.65539062 -31.3125 36.89453125 C-31.34582893 44.48519525 -31.16519589 50.77706776 -26.45703125 57.05859375 C-21.98057478 60.81201212 -18.89916044 62.09363747 -13 62 C-7.82883809 60.27627936 -5.07590782 57.44297796 -2 53 C0.43969273 46.62449635 0.3324461 40.39071797 0.3125 33.625 C0.32861328 32.53960937 0.34472656 31.45421875 0.36132812 30.3359375 C0.36563876 23.19753072 0.16922873 15.82145816 -4.58251953 10.09179688 C-7.91855285 6.78316633 -11.22942657 5.01171827 -15.94921875 4.7734375 C-20.53743294 5.28032592 -24.43863632 7.05616971 -27.35546875 10.6875 Z " fill="#3A4030" transform="translate(1858,236)"/>
<path d="M0 0 C13.86 0 27.72 0 42 0 C42 3.3 42 6.6 42 10 C31.44 10 20.88 10 10 10 C10 15.94 10 21.88 10 28 C12.76375 27.9175 15.5275 27.835 18.375 27.75 C26.25187099 27.67220025 33.42061838 28.01080121 39.63671875 33.42578125 C45.2734005 39.67619912 45.52983041 46.28002696 45.30859375 54.328125 C44.67846766 61.82582783 41.60284761 66.00042786 35.9765625 70.7734375 C29.22865877 74.96087183 21.66034149 74.6851383 14 74 C3.11783712 71.34485689 3.11783712 71.34485689 0 67 C-0.29296875 64.51953125 -0.29296875 64.51953125 -0.1875 61.8125 C-0.16042969 60.91144531 -0.13335938 60.01039063 -0.10546875 59.08203125 C-0.07066406 58.39496094 -0.03585937 57.70789063 0 57 C2.89977143 57.60230798 4.2832285 58.19511297 6.8125 59.9375 C12.26672746 63.466706 17.54983901 64.57590723 24 64 C28.19875533 62.7403734 30.35715172 61.89169278 32.9375 58.3125 C34.54301417 53.30707347 34.91864392 49.17573559 32.8125 44.1875 C30.03265855 40.83251893 27.08797026 39.36265675 23 38 C21.22833025 37.85164052 19.45232388 37.75229982 17.67578125 37.68359375 C16.74934814 37.64548584 15.82291504 37.60737793 14.8684082 37.56811523 C13.6949585 37.52501221 12.52150879 37.48190918 11.3125 37.4375 C7.579375 37.293125 3.84625 37.14875 0 37 C0 24.79 0 12.58 0 0 Z " fill="#3A4030" transform="translate(1924,233)"/>
<path d="M0 0 C5.04913703 2.84587723 8.58828899 6.38986698 10.4375 11.9375 C11.62874191 26.03711733 7.17973098 34.19624036 -1.5625 44.9375 C-4.60656922 48.39435817 -7.75449849 51.75000856 -10.92578125 55.08984375 C-13.74058275 58.03151309 -13.74058275 58.03151309 -16.5625 61.9375 C-3.1975 62.4325 -3.1975 62.4325 10.4375 62.9375 C10.4375 66.2375 10.4375 69.5375 10.4375 72.9375 C-4.0825 72.9375 -18.6025 72.9375 -33.5625 72.9375 C-33.5625 63.9375 -33.5625 63.9375 -30.96484375 60.49609375 C-29.83084228 59.43293627 -28.67467361 58.39303982 -27.5 57.375 C-26.2927704 56.25030631 -25.08702779 55.12401429 -23.8828125 53.99609375 C-23.30305664 53.46612793 -22.72330078 52.93616211 -22.12597656 52.39013672 C-18.98857809 49.47515844 -16.25786781 46.25718463 -13.5625 42.9375 C-13.16401855 42.44749512 -12.76553711 41.95749023 -12.35498047 41.45263672 C-10.99556266 39.76923849 -9.65188678 38.07436959 -8.3125 36.375 C-7.88751221 35.84455078 -7.46252441 35.31410156 -7.0246582 34.76757812 C-2.47431824 28.89710573 0.15278301 23.5194999 -0.5625 15.9375 C-1.41812165 12.5150134 -2.48733847 11.98291009 -5.5625 10.125 C-10.29281938 8.34867675 -14.72309052 8.69813904 -19.5625 9.9375 C-22.01904545 11.07365227 -24.27066421 12.3316116 -26.5546875 13.78125 C-28.5625 14.9375 -28.5625 14.9375 -32.5625 15.9375 C-32.5625 12.3075 -32.5625 8.6775 -32.5625 4.9375 C-22.12329214 -0.349891 -11.73428858 -3.7211849 0 0 Z " fill="#3A4030" transform="translate(1799.5625,233.0625)"/>
<path d="M0 0 C3.95182124 2.94248162 6.2484416 6.6750123 7.8046875 11.34375 C9.08934602 24.00079538 4.44000447 32.37142783 -3.3203125 41.9453125 C-8.6470445 48.33218321 -14.31519524 54.46363274 -20.1953125 60.34375 C-6.3353125 60.83875 -6.3353125 60.83875 7.8046875 61.34375 C7.8046875 64.64375 7.8046875 67.94375 7.8046875 71.34375 C-6.7153125 71.34375 -21.2353125 71.34375 -36.1953125 71.34375 C-36.1953125 62.34375 -36.1953125 62.34375 -34.97705078 60.02783203 C-34.12989502 59.19807861 -34.12989502 59.19807861 -33.265625 58.3515625 C-32.63970459 57.71484619 -32.01378418 57.07812988 -31.36889648 56.42211914 C-30.69286377 55.77750732 -30.01683105 55.13289551 -29.3203125 54.46875 C-27.93832013 53.07469637 -26.5568109 51.68016361 -25.17578125 50.28515625 C-24.49563965 49.61371582 -23.81549805 48.94227539 -23.11474609 48.25048828 C-10.07209795 35.6400173 -10.07209795 35.6400173 -3.1953125 19.34375 C-3.26559105 15.19731548 -3.50990764 13.15766827 -6.1953125 9.96875 C-11.22256271 7.24565614 -15.50600097 6.65959497 -21.08203125 8.078125 C-25.68961473 9.67755318 -29.30768035 11.40905154 -33.1953125 14.34375 C-33.8553125 14.34375 -34.5153125 14.34375 -35.1953125 14.34375 C-35.1953125 10.71375 -35.1953125 7.08375 -35.1953125 3.34375 C-24.43859165 -2.82554578 -11.77164375 -6.2189816 0 0 Z " fill="#3A4031" transform="translate(1909.1953125,234.65625)"/>
<path d="M0 0 C1.98828125 1.0703125 1.98828125 1.0703125 4.98828125 3.0703125 C5.28125 5.453125 5.28125 5.453125 5.17578125 8.1953125 C5.13517578 9.56042969 5.13517578 9.56042969 5.09375 10.953125 C5.05894531 11.65179688 5.02414062 12.35046875 4.98828125 13.0703125 C1.67502957 12.66870624 -0.74106272 11.75555186 -3.57421875 10.0703125 C-8.61040851 7.14016573 -12.15528373 6.66642043 -18.01171875 7.0703125 C-21.43091944 7.94589364 -21.43091944 7.94589364 -24.01171875 10.0703125 C-25.10169562 13.74898443 -25.23399864 16.16098568 -24.32421875 19.8828125 C-22.76460202 22.48217371 -21.70532276 22.79795532 -19.01171875 24.0703125 C-15.98525267 25.93547292 -13.03531137 27.91588592 -10.07421875 29.8828125 C-9.27564453 30.40423828 -8.47707031 30.92566406 -7.65429688 31.46289062 C-1.01217259 35.8707958 6.29007542 40.81973727 7.98828125 49.0703125 C8.73854256 55.6135751 7.77679735 60.628177 3.98828125 66.0703125 C-1.03853151 71.09712526 -6.67173864 72.37171519 -13.63671875 72.5078125 C-20.34306032 72.43654426 -29.00330595 71.0787253 -34.01171875 66.0703125 C-34.08377386 64.38422284 -34.09557943 62.69530591 -34.07421875 61.0078125 C-34.06519531 60.08871094 -34.05617188 59.16960937 -34.046875 58.22265625 C-34.03527344 57.51238281 -34.02367187 56.80210937 -34.01171875 56.0703125 C-30.30854164 56.86385045 -27.33549339 58.36705722 -24.01171875 60.1328125 C-18.93680554 62.51167807 -13.6784395 62.79759998 -8.26171875 61.3203125 C-5.55652222 59.81742554 -4.37290704 58.86831066 -3.01171875 56.0703125 C-3.01171875 52.0212022 -3.36278414 49.84517897 -5.984375 46.71484375 C-10.35741638 42.56555763 -15.81161127 39.74972619 -20.97460938 36.70703125 C-27.11464225 32.96961994 -31.69298761 28.96999669 -35.38671875 22.7578125 C-36.65732373 17.29421108 -36.69454004 12.08084185 -34.88671875 6.7578125 C-26.62103744 -5.08966405 -12.37417378 -5.61517129 0 0 Z " fill="#3A4030" transform="translate(1515.01171875,234.9296875)"/>
<path d="M0 0 C12.21 0 24.42 0 37 0 C37 2.97 37 5.94 37 9 C28.09 9 19.18 9 10 9 C10 16.59 10 24.18 10 32 C12.31 31.34 14.62 30.68 17 30 C19.4092367 29.70272294 21.82776465 29.47240948 24.25 29.3125 C26.05210938 29.18294922 26.05210938 29.18294922 27.890625 29.05078125 C31 29 31 29 34 30 C34 32.97 34 35.94 34 39 C32.85402344 39.06058594 31.70804688 39.12117188 30.52734375 39.18359375 C28.99738703 39.26806989 27.46743959 39.35271427 25.9375 39.4375 C25.18533203 39.47681641 24.43316406 39.51613281 23.65820312 39.55664062 C22.91376953 39.59853516 22.16933594 39.64042969 21.40234375 39.68359375 C20.72679443 39.72025146 20.05124512 39.75690918 19.35522461 39.79467773 C16.22292081 40.06774371 13.11258322 40.55534525 10 41 C10 48.59 10 56.18 10 64 C18.91 64 27.82 64 37 64 C37 66.97 37 69.94 37 73 C24.79 73 12.58 73 0 73 C0 48.91 0 24.82 0 0 Z " fill="#3A4030" transform="translate(1665,233)"/>
<path d="M0 0 C1 1 1 1 1.09765625 3.28515625 C1.08605469 4.20167969 1.07445312 5.11820313 1.0625 6.0625 C1.05347656 6.98160156 1.04445313 7.90070313 1.03515625 8.84765625 C1.02355469 9.55792969 1.01195312 10.26820313 1 11 C-1.79901157 10.37114718 -3.95363175 9.57250991 -6.625 8.375 C-11.54134996 6.51302418 -15.93569849 6.75091892 -21 8 C-27.53692901 11.38951875 -30.87184454 15.86748167 -33.36499023 22.73046875 C-34.44823958 26.60201274 -34.48867949 30.37614927 -34.4375 34.375 C-34.42920166 35.20990967 -34.42090332 36.04481934 -34.41235352 36.9050293 C-34.19025056 45.01534397 -32.79660059 51.57047753 -26.9375 57.5 C-22.46887151 60.85864797 -17.52868584 61.92245882 -12 62 C-8.8108826 61.34955596 -5.99207145 60.25015263 -3 59 C-1.67268839 58.64344316 -0.34057384 58.30290371 1 58 C1.28525665 61.37870659 1.44552683 64.63138253 1 68 C-4.22804509 72.66285103 -10.68831687 72.34210024 -17.35546875 72.2734375 C-25.28934042 71.67818453 -31.49982004 68.48741799 -37.24609375 63.04296875 C-45.65132724 53.25246293 -46.92515503 40.40882538 -46 28 C-44.54221442 18.13850929 -41.09564992 8.93588805 -33.125 2.5625 C-23.33165332 -3.93571688 -10.59804012 -6.16165123 0 0 Z " fill="#3A4031" transform="translate(1655,235)"/>
<path d="M0 0 C5.3758859 3.3351483 8.88885455 8.08913668 10.8671875 14.046875 C12.71471328 22.51707013 11.91591506 30.91302846 7.375 38.375 C2.99652459 43.37600746 -1.60722959 46.03789138 -8.26171875 46.78125 C-15.86856527 47.07500843 -22.21669824 46.93739318 -28.6328125 42.3359375 C-34.05565533 36.99815887 -36.29528729 30.31880875 -36.6953125 22.82421875 C-36.48156198 15.37857553 -34.62090108 9.3378771 -29.20703125 3.96875 C-21.58262472 -2.77365577 -9.35384887 -4.29239719 0 0 Z M-25.375 10.375 C-29.68633354 16.12344472 -29.34616176 22.43381802 -28.625 29.375 C-27.02826294 33.82796929 -24.73434024 36.52978839 -21 39.375 C-14.84937516 41.19740736 -9.05068538 41.52168764 -3.1875 38.75 C2.12039175 33.83049057 4.15590985 29.66135229 4.625 22.625 C4.52934358 17.48825048 3.4849895 12.64816203 -0.08984375 8.796875 C-8.21024321 1.88758646 -18.32577331 2.36994597 -25.375 10.375 Z " fill="#1A446F" transform="translate(1113.625,247.625)"/>
<path d="M0 0 C7 0 7 0 8.92114258 1.61376953 C9.40736084 2.36255371 9.8935791 3.11133789 10.39453125 3.8828125 C10.95317871 4.71458008 11.51182617 5.54634766 12.08740234 6.40332031 C12.65668457 7.30147461 13.2259668 8.19962891 13.8125 9.125 C15.0292616 10.95618538 16.24671441 12.78691167 17.46484375 14.6171875 C18.35598877 15.98182129 18.35598877 15.98182129 19.26513672 17.37402344 C21.70652575 21.06943301 24.27930213 24.66220601 26.875 28.25 C28.23625 30.1475 29.5975 32.045 31 34 C31.33 22.78 31.66 11.56 32 0 C33.98 0 35.96 0 38 0 C38 15.84 38 31.68 38 48 C32 48 32 48 30.30004883 46.6015625 C29.85685303 45.94929688 29.41365723 45.29703125 28.95703125 44.625 C28.44551514 43.89394043 27.93399902 43.16288086 27.40698242 42.40966797 C26.88080322 41.61447754 26.35462402 40.81928711 25.8125 40 C25.25731689 39.19578613 24.70213379 38.39157227 24.13012695 37.56298828 C22.97801735 35.88948721 21.83479856 34.20983325 20.70019531 32.52441406 C18.59117681 29.39298797 16.43988586 26.29200309 14.28662109 23.19091797 C12.17760137 20.13654223 10.09097208 17.06675905 8 14 C7.67 25.22 7.34 36.44 7 48 C4.69 48 2.38 48 0 48 C0 32.16 0 16.32 0 0 Z " fill="#1A4470" transform="translate(1330,246)"/>
<path d="M0 0 C5.3758859 3.3351483 8.88885455 8.08913668 10.8671875 14.046875 C12.71471328 22.51707013 11.91591506 30.91302846 7.375 38.375 C3.06169047 43.30157629 -1.52717186 46.07666493 -8.11328125 46.7109375 C-16.48269891 46.79642696 -23.02977327 46.73272063 -29.36328125 40.7265625 C-35.63234012 33.87398741 -36.16450154 27.23696374 -35.93359375 18.26953125 C-35.38834474 11.38835076 -33.20516304 7.60135039 -28.1875 3 C-20.86604035 -3.08139804 -8.62329572 -3.95715291 0 0 Z M-25.9375 10.9375 C-29.61012908 16.24240867 -29.17667182 22.15687048 -28.625 28.375 C-27.34505223 33.16323835 -25.39471418 35.74666189 -21.5625 38.875 C-16.80910788 41.16974102 -11.76610638 41.13607013 -6.625 40.375 C-1.25272179 37.83537757 1.91610251 34.02224373 4.125 28.5 C4.89817318 21.92802801 4.74929703 16.2021993 1.375 10.375 C-1.53013519 7.24520102 -4.67205993 4.56965579 -9.015625 4.13671875 C-16.72888733 3.93651112 -20.63003817 5.05625851 -25.9375 10.9375 Z " fill="#1A4470" transform="translate(1310.625,247.625)"/>
<path d="M0 0 C25.41935484 0 25.41935484 0 30.5 3.9375 C33.61455291 8.22001025 33.61650086 12.90753396 33 18 C31.72165205 21.51711276 30.06438023 24.25815924 26.9375 26.4375 C25 27 25 27 22 27 C23.74972112 29.22938605 25.49976805 31.45851504 27.25 33.6875 C27.74113281 34.31333984 28.23226562 34.93917969 28.73828125 35.58398438 C29.22167969 36.19951172 29.70507812 36.81503906 30.203125 37.44921875 C30.67685547 38.05427246 31.15058594 38.65932617 31.63867188 39.28271484 C32.85563752 40.81788994 34.10544377 42.32689856 35.359375 43.83203125 C37 46 37 46 37 48 C33.93627299 48.42281446 31.96521301 48.65661551 29 48 C26.16623697 45.76715815 24.17518905 43.02963713 22.0625 40.125 C21.48693359 39.37863281 20.91136719 38.63226563 20.31835938 37.86328125 C16.31385523 32.62771046 16.31385523 32.62771046 15 30 C12.36 29.67 9.72 29.34 7 29 C7 35.27 7 41.54 7 48 C4.69 48 2.38 48 0 48 C0 32.16 0 16.32 0 0 Z M7 6 C7 11.61 7 17.22 7 23 C10.0628125 23.12375 10.0628125 23.12375 13.1875 23.25 C14.91033203 23.31960938 14.91033203 23.31960938 16.66796875 23.390625 C20.63979862 22.9249943 22.18771485 21.77629613 25 19 C26.42041821 16.15916359 26.31452272 14.14522722 26 11 C23.76793569 8.15219381 22.45007001 7.15002334 19 6 C14.99616868 5.86600297 11.0072645 5.95691113 7 6 Z " fill="#1A446F" transform="translate(748,246)"/>
<path d="M0 0 C3.10706981 -0.45534644 5.01352328 -0.73446805 8 0 C10.61397685 2.4630544 12.24436282 5.38930764 14 8.5 C14.48855469 9.31082031 14.97710938 10.12164062 15.48046875 10.95703125 C16.68066064 12.95735107 17.8514597 14.96972633 19 17 C22.55970844 13.8183137 24.49971666 10.43441116 26.75 6.25 C30.12083398 0.32445413 30.12083398 0.32445413 33.296875 -0.84765625 C35.5 -0.8125 35.5 -0.8125 39 0 C37.07227051 5.88833734 33.25136067 10.73837558 29.72460938 15.76171875 C26.8807784 19.84830529 26.8807784 19.84830529 25.86328125 24.59375 C27.4885867 28.03425914 29.58858184 30.96871474 31.875 34 C40 44.95821326 40 44.95821326 40 48 C36.85591387 48.49211783 35.01736647 48.77451118 32 48 C29.2281242 45.37975854 27.42542731 42.27126171 25.5 39 C24.96375 38.14148438 24.4275 37.28296875 23.875 36.3984375 C22.55688637 34.28004059 21.26750983 32.14892448 20 30 C16.83964915 33.71271306 14.57288442 37.53628096 12.25 41.8125 C8.8907032 47.67280291 8.8907032 47.67280291 5.703125 48.84375 C3.5 48.8125 3.5 48.8125 0 48 C2.01250854 41.96247439 5.82102522 36.79575474 9.27539062 31.50585938 C10.01112305 30.34086914 10.01112305 30.34086914 10.76171875 29.15234375 C11.21506592 28.45101318 11.66841309 27.74968262 12.13549805 27.02709961 C13.22413532 24.4744435 13.02368302 23.55303707 12 21 C11.14566479 19.47671878 10.23185021 17.9860351 9.27734375 16.5234375 C8.47006836 15.27046875 8.47006836 15.27046875 7.64648438 13.9921875 C7.08251953 13.12851562 6.51855469 12.26484375 5.9375 11.375 C4.81754312 9.65629205 3.70144848 7.93505912 2.58984375 6.2109375 C2.09347412 5.45087402 1.59710449 4.69081055 1.08569336 3.90771484 C0 2 0 2 0 0 Z " fill="#1A446F" transform="translate(533,246)"/>
<path d="M0 0 C2.31 0 4.62 0 7 0 C7.01981934 0.97348389 7.03963867 1.94696777 7.06005859 2.94995117 C7.13635367 6.57504351 7.22503336 10.19974694 7.31738281 13.82446289 C7.35557409 15.39079081 7.39044394 16.95720349 7.421875 18.52368164 C7.46774071 20.780418 7.52569769 23.03657583 7.5859375 25.29296875 C7.59748871 25.98899704 7.60903992 26.68502533 7.62094116 27.40214539 C7.76811495 32.29300702 8.23863655 36.23477392 11.78125 39.78515625 C15.91892965 42.05068155 20.42837025 41.63919443 25 41 C28.16620095 38.81381363 28.7896387 37.63108389 30 34 C30.15322359 31.41669771 30.25706889 28.85507761 30.31640625 26.26953125 C30.33718735 25.51911057 30.35796844 24.76868988 30.37937927 23.99552917 C30.44469926 21.60127816 30.50367792 19.20691861 30.5625 16.8125 C30.60570193 15.18813987 30.64931676 13.56379067 30.69335938 11.93945312 C30.80036263 7.95974629 30.90167937 3.97993042 31 0 C33.31 0 35.62 0 38 0 C38.07453636 4.85633035 38.12878329 9.71232268 38.16479492 14.5690918 C38.17981806 16.21889044 38.2002426 17.86864958 38.22631836 19.51831055 C38.26298899 21.89902536 38.27979103 24.27920908 38.29296875 26.66015625 C38.30845261 27.38960953 38.32393646 28.11906281 38.33988953 28.87062073 C38.34184588 34.91595944 37.03616013 39.56974436 33.0625 44.3125 C28.60896892 47.95629815 24.78899659 48.36460735 19.125 48.375 C18.43019531 48.39949219 17.73539063 48.42398438 17.01953125 48.44921875 C11.8406475 48.47847798 8.9705605 47.25880076 5 44 C0.35285812 37.9712754 -0.15072463 33.60641863 -0.09765625 26.171875 C-0.0962413 25.42286926 -0.09482635 24.67386353 -0.09336853 23.90216064 C-0.08778659 21.51806588 -0.07523745 19.13406622 -0.0625 16.75 C-0.05748266 15.13020969 -0.05292016 13.51041791 -0.04882812 11.890625 C-0.03782308 7.92704688 -0.02057091 3.96353955 0 0 Z " fill="#1A4470" transform="translate(1169,246)"/>
<path d="M0 0 C2.97 0 5.94 0 9 0 C10.47582263 4.01581756 11.95079105 8.03194763 13.42504883 12.04833984 C13.9241767 13.40779604 14.4235174 14.76717411 14.9230957 16.12646484 C16.37982023 20.09028123 17.83039381 24.05627518 19.27630615 28.02404785 C20.00382421 30.0104415 20.74088692 31.99310965 21.47900391 33.97558594 C21.94066278 35.2310341 22.40209829 36.48656443 22.86328125 37.7421875 C23.27489502 38.85190918 23.68650879 39.96163086 24.1105957 41.10498047 C25 44 25 44 25 48 C22.69 48 20.38 48 18 48 C17.49440092 46.56445975 16.9957251 45.1264798 16.5 43.6875 C16.2215625 42.88699219 15.943125 42.08648437 15.65625 41.26171875 C15 39 15 39 15 36 C8.07 36 1.14 36 -6 36 C-6.33 37.98 -6.66 39.96 -7 42 C-7.93942486 44.02915769 -8.92598385 46.03875312 -10 48 C-12.31 48 -14.62 48 -17 48 C-11.76666111 31.83210205 -5.98206532 15.90451074 0 0 Z M4 7 C1.36 14.92 -1.28 22.84 -4 31 C1.61 31 7.22 31 13 31 C10.36 23.08 7.72 15.16 5 7 C4.67 7 4.34 7 4 7 Z " fill="#1A446F" transform="translate(979,246)"/>
<path d="M0 0 C9.9 0 19.8 0 30 0 C30 1.98 30 3.96 30 6 C22.41 6 14.82 6 7 6 C7 10.95 7 15.9 7 21 C14.26 21 21.52 21 29 21 C29 22.98 29 24.96 29 27 C21.74 27 14.48 27 7 27 C7 31.95 7 36.9 7 42 C14.59 42 22.18 42 30 42 C30 43.98 30 45.96 30 48 C20.1 48 10.2 48 0 48 C0 32.16 0 16.32 0 0 Z " fill="#1A4471" transform="translate(829,246)"/>
<path d="M0 0 C9.9 0 19.8 0 30 0 C30 1.98 30 3.96 30 6 C22.41 6 14.82 6 7 6 C7 10.95 7 15.9 7 21 C13.93 21 20.86 21 28 21 C28 22.98 28 24.96 28 27 C21.07 27 14.14 27 7 27 C7 31.95 7 36.9 7 42 C14.59 42 22.18 42 30 42 C30 43.98 30 45.96 30 48 C20.1 48 10.2 48 0 48 C0 32.16 0 16.32 0 0 Z " fill="#1A426C" transform="translate(710,246)"/>
<path d="M0 0 C3.3 0 6.6 0 10 0 C10 24.09 10 48.18 10 73 C6.7 73 3.4 73 0 73 C0 48.91 0 24.82 0 0 Z " fill="#3A4030" transform="translate(1530,233)"/>
<path d="M0 0 C24.65 0 24.65 0 29.9375 4.5 C33.74038103 9.10955276 33.49959461 13.19221268 33 19 C31.46375344 23.22467804 29.8796118 25.69648049 26 28 C22.23508833 29.25497056 18.72793525 29.10661648 14.8125 29.0625 C12.234375 29.041875 9.65625 29.02125 7 29 C7 35.27 7 41.54 7 48 C4.69 48 2.38 48 0 48 C0 32.16 0 16.32 0 0 Z M7 6 C7 11.61 7 17.22 7 23 C16.11503056 23.81505683 16.11503056 23.81505683 24.375 20.9375 C26.41723737 17.24576321 26.68050965 15.15867007 26 11 C23.78136971 8.09282927 22.48055071 7.16018357 19 6 C14.99616868 5.86600297 11.0072645 5.95691113 7 6 Z " fill="#1B4571" transform="translate(669,246)"/>
<path d="M0 0 C9.57 0 19.14 0 29 0 C29 1.98 29 3.96 29 6 C21.41 6 13.82 6 6 6 C6 10.95 6 15.9 6 21 C13.26 21 20.52 21 28 21 C28 22.98 28 24.96 28 27 C20.74 27 13.48 27 6 27 C6 31.95 6 36.9 6 42 C13.92 42 21.84 42 30 42 C30 43.98 30 45.96 30 48 C20.1 48 10.2 48 0 48 C0 32.16 0 16.32 0 0 Z " fill="#1A4470" transform="translate(581,246)"/>
<path d="M0 0 C0.845625 0.495 1.69125 0.99 2.5625 1.5 C2.2325 3.81 1.9025 6.12 1.5625 8.5 C0.44875 8.005 -0.665 7.51 -1.8125 7 C-7.55297011 4.83069579 -13.60367542 4.55539181 -19.4375 6.5 C-19.93875283 9.83142278 -19.93875283 9.83142278 -19.4375 13.5 C-15.82188078 17.01231582 -11.56866135 18.21861948 -6.875 19.9375 C2.20743142 23.40043618 2.20743142 23.40043618 4.5625 27.5 C5.38620385 32.9837321 5.5585952 37.72125857 2.8125 42.625 C-1.69775651 46.38354709 -5.39568683 46.85532302 -11.1875 46.8125 C-11.90035156 46.81121094 -12.61320312 46.80992187 -13.34765625 46.80859375 C-18.70882098 46.71058343 -22.67461633 45.88144184 -27.4375 43.5 C-26.9425 40.53 -26.9425 40.53 -26.4375 37.5 C-23.67473823 38.02268466 -21.1114124 38.60869587 -18.4375 39.5 C-16.44096488 39.6441942 -14.43901894 39.7205659 -12.4375 39.75 C-10.8596875 39.78867187 -10.8596875 39.78867187 -9.25 39.828125 C-6.4440123 39.73150454 -6.4440123 39.73150454 -4.58984375 38.171875 C-2.77525879 35.53918902 -2.98559469 33.59877929 -3.4375 30.5 C-6.48600377 27.62694968 -9.90838067 26.45032797 -13.8125 25.0625 C-25.29860152 20.77779696 -25.29860152 20.77779696 -27.4375 16.5 C-27.94010166 11.38335036 -28.27852072 6.97178626 -25.6875 2.4375 C-19.13547143 -3.20452461 -7.85131189 -3.40869714 0 0 Z " fill="#1A446F" transform="translate(1067.4375,247.5)"/>
<path d="M0 0 C0.86625 0.495 1.7325 0.99 2.625 1.5 C2.625 3.81 2.625 6.12 2.625 8.5 C1.861875 8.190625 1.09875 7.88125 0.3125 7.5625 C-5.05106529 5.4420207 -9.63212646 4.82436782 -15.375 5.5 C-18.1767483 6.9631891 -18.1767483 6.9631891 -19.375 9.5 C-19.94105858 12.09517741 -19.94105858 12.09517741 -18.375 14.5 C-15.5367424 16.19895702 -12.44288941 17.28154747 -9.375 18.5 C-7.23735287 19.45123976 -5.11236573 20.43136711 -3 21.4375 C-2.00226563 21.90027344 -1.00453125 22.36304688 0.0234375 22.83984375 C3.02084079 24.7526011 4.14782781 26.29046309 5.625 29.5 C6.16135899 34.32723092 6.14517901 36.47890786 3.9375 40.8125 C0.54474963 44.7554261 -1.87687754 46.34049218 -7.1171875 46.8984375 C-8.49479116 46.90633962 -9.87256857 46.89817174 -11.25 46.875 C-12.27287109 46.89240234 -12.27287109 46.89240234 -13.31640625 46.91015625 C-18.34374289 46.88142861 -21.87165733 45.72227615 -26.375 43.5 C-26.375 41.52 -26.375 39.54 -26.375 37.5 C-25.116875 37.83 -23.85875 38.16 -22.5625 38.5 C-16.33567379 39.85965509 -9.26981282 41.27636241 -3.625 37.8125 C-2.19849904 35.5705707 -2.19849904 35.5705707 -2.25 33 C-3.83535535 29.4769881 -5.99761926 28.1117919 -9.375 26.5 C-11.55758463 25.69488095 -13.7456161 24.90444682 -15.9375 24.125 C-21.45535636 22.0526544 -24.58734715 20.7655665 -27.375 15.5 C-28.14494388 11.54917687 -27.78280349 8.37386462 -26.0625 4.6875 C-20.04087443 -3.11831092 -8.97579238 -3.91536622 0 0 Z " fill="#1A4470" transform="translate(1404.375,247.5)"/>
<path d="M0 0 C24.21428571 0 24.21428571 0 29.4375 3.75 C32.84456845 8.65617857 33.43083938 13.01725889 32.609375 18.81640625 C31.44314734 22.99538869 28.91098122 25.64159166 25.37890625 28.15234375 C21.70481465 29.46150283 18.11444482 29.20767366 14.25 29.125 C10.16625 29.063125 10.16625 29.063125 6 29 C6 35.27 6 41.54 6 48 C4.02 48 2.04 48 0 48 C0 32.16 0 16.32 0 0 Z M6 6 C6 11.61 6 17.22 6 23 C8.206875 23.0825 10.41375 23.165 12.6875 23.25 C13.92886719 23.29640625 15.17023438 23.3428125 16.44921875 23.390625 C20.5748466 22.93676055 22.12266496 21.9254689 25 19 C26.14326535 16.02751009 26.11108414 14.4665534 25.375 11.375 C23.62201827 8.34712246 22.14814771 7.51128412 19 6 C15.64707992 5.63931498 15.64707992 5.63931498 12.1875 5.8125 C9.1246875 5.9053125 9.1246875 5.9053125 6 6 Z " fill="#1A4570" transform="translate(478,246)"/>
<path d="M0 0 C0 2.31 0 4.62 0 7 C-0.60585938 6.7834375 -1.21171875 6.566875 -1.8359375 6.34375 C-8.46635516 4.14041121 -15.24849917 2.33876099 -22.078125 4.7265625 C-26.72322159 7.12717965 -28.87825064 10.04266078 -30.6875 14.8125 C-31.72627551 22.08392856 -31.09463811 27.77859463 -27 34 C-21.90318267 38.35353147 -17.47671424 38.48856102 -10.890625 38.2734375 C-7.34059532 37.93762388 -4.34456273 37.21620463 -1 36 C-0.505 38.97 -0.505 38.97 0 42 C-5.01989955 45.00240828 -8.82567833 45.46475201 -14.5 45.375 C-15.23347656 45.38660156 -15.96695313 45.39820313 -16.72265625 45.41015625 C-23.69929765 45.37271453 -28.97185985 42.89582067 -34 38 C-38.73933908 30.14351172 -40.3018725 22.5913702 -38.50390625 13.48828125 C-36.57998102 7.08606677 -33.39102538 2.21469476 -27.625 -1.375 C-19.08932341 -5.25337777 -8.22347072 -4.02782239 0 0 Z " fill="#1A446F" transform="translate(904,249)"/>
<path d="M0 0 C9.57 0 19.14 0 29 0 C29 1.98 29 3.96 29 6 C21.74 6 14.48 6 7 6 C7 10.95 7 15.9 7 21 C13.93 21 20.86 21 28 21 C28 22.98 28 24.96 28 27 C21.07 27 14.14 27 7 27 C7 33.93 7 40.86 7 48 C4.69 48 2.38 48 0 48 C0 32.16 0 16.32 0 0 Z " fill="#1A4571" transform="translate(792,246)"/>
<path d="M0 0 C12.87 0 25.74 0 39 0 C39 2.31 39 4.62 39 7 C33.72 7 28.44 7 23 7 C23 20.53 23 34.06 23 48 C20.69 48 18.38 48 16 48 C16 34.47 16 20.94 16 7 C10.72 7 5.44 7 0 7 C0 4.69 0 2.38 0 0 Z " fill="#1B4571" transform="translate(1213,246)"/>
<path d="M0 0 C12.87 0 25.74 0 39 0 C39 2.31 39 4.62 39 7 C33.72 7 28.44 7 23 7 C23 20.53 23 34.06 23 48 C20.69 48 18.38 48 16 48 C16 34.47 16 20.94 16 7 C10.72 7 5.44 7 0 7 C0 4.69 0 2.38 0 0 Z " fill="#1B4571" transform="translate(908,246)"/>
<path d="M0 0 C0.99 0 1.98 0 3 0 C3.2421875 2.26171875 3.2421875 2.26171875 3 5 C1.3203125 7.01953125 1.3203125 7.01953125 -0.875 8.8125 C-1.59429688 9.41707031 -2.31359375 10.02164063 -3.0546875 10.64453125 C-5 12 -5 12 -7 12 C-6.10776445 16.26290316 -4.96410207 18.3290744 -1.4375 20.75 C-0.81746094 21.13671875 -0.19742187 21.5234375 0.44140625 21.921875 C2 23 2 23 3 25 C3.5 28.25 3.5 28.25 3 32 C0.47052608 34.97974676 -2.5091426 37.2545713 -6 39 C-6.32915319 41.36589688 -6.32915319 41.36589688 -6 44 C-4.31295053 45.82248789 -4.31295053 45.82248789 -2.0625 47.1875 C1.92715232 49.85430464 1.92715232 49.85430464 3 52 C3.5 55.25 3.5 55.25 3 59 C0.47052608 61.97974676 -2.5091426 64.2545713 -6 66 C-6.37626214 68.36023087 -6.37626214 68.36023087 -6 71 C-4.03053535 72.83593489 -4.03053535 72.83593489 -1.5 74.3125 C2.76563211 77.40558869 2.76563211 77.40558869 3.80859375 80.05078125 C3.98942301 82.96048838 3.60675007 85.25841658 1.734375 87.546875 C-0.6697132 89.61099113 -3.36608228 91.24405485 -6 93 C-6.57839127 95.44639292 -6.57839127 95.44639292 -6 98 C-4.31593871 99.85734664 -4.31593871 99.85734664 -2.0625 101.25 C-0.96615234 102.00023437 -0.96615234 102.00023437 0.15234375 102.765625 C0.76207031 103.17296875 1.37179687 103.5803125 2 104 C3 105 3 105 3.0625 108.0625 C3.041875 109.031875 3.02125 110.00125 3 111 C2.01 111 1.02 111 0 111 C-0.165 110.29875 -0.33 109.5975 -0.5 108.875 C-2.1232094 105.76384866 -3.2122963 105.02173663 -6.0625 103.125 C-9.23978 100.87370324 -9.90154307 100.28060226 -11.25 96.4375 C-10.94354416 92.22373215 -10.04162949 90.88154373 -7 88 C-6.113125 87.525625 -5.22625 87.05125 -4.3125 86.5625 C-1.66062987 85.1438006 -1.66062987 85.1438006 -1.1875 81.8125 C-1.125625 80.884375 -1.06375 79.95625 -1 79 C-1.8353125 78.62875 -1.8353125 78.62875 -2.6875 78.25 C-7.02386265 75.90602019 -9.55963534 74.42470921 -11.0625 69.5625 C-11 66 -11 66 -9.375 63.25 C-7 61 -7 61 -4.3125 59.5625 C-1.66062987 58.1438006 -1.66062987 58.1438006 -1.1875 54.8125 C-1.0946875 53.4203125 -1.0946875 53.4203125 -1 52 C-1.721875 51.79375 -2.44375 51.5875 -3.1875 51.375 C-6.97480207 49.5234301 -8.72856247 47.54077027 -11 44 C-11.3125 40.5 -11.3125 40.5 -10 37 C-8.03902202 35.24808151 -6.04695815 33.84159728 -3.8125 32.45703125 C-1.67126211 30.73573441 -1.36633016 29.67306535 -1 27 C-1.721875 26.41992188 -2.44375 25.83984375 -3.1875 25.2421875 C-4.115625 24.46101563 -5.04375 23.67984375 -6 22.875 C-6.928125 22.10929687 -7.85625 21.34359375 -8.8125 20.5546875 C-11 18 -11 18 -11.41796875 14.86328125 C-10.8756422 11.14809093 -9.63853671 9.63853671 -7 7 C-6.13375 6.484375 -5.2675 5.96875 -4.375 5.4375 C-1.77526064 3.86397355 -1.05965275 2.79362999 0 0 Z " fill="#B5AAF8" transform="translate(1738,216)"/>
<path d="M0 0 C2.31 0 4.62 0 7 0 C7 13.86 7 27.72 7 42 C14.59 42 22.18 42 30 42 C30 43.98 30 45.96 30 48 C20.1 48 10.2 48 0 48 C0 32.16 0 16.32 0 0 Z " fill="#1A4470" transform="translate(1133,246)"/>
<path d="M0 0 C2.31 0 4.62 0 7 0 C7 13.86 7 27.72 7 42 C14.59 42 22.18 42 30 42 C30 43.98 30 45.96 30 48 C20.1 48 10.2 48 0 48 C0 32.16 0 16.32 0 0 Z " fill="#1A4470" transform="translate(619,246)"/>
<path d="M0 0 C2.31 0 4.62 0 7 0 C7 15.84 7 31.68 7 48 C4.69 48 2.38 48 0 48 C0 32.16 0 16.32 0 0 Z " fill="#1A4470" transform="translate(1259,246)"/>
<path d="M0 0 C2.31 0 4.62 0 7 0 C7 15.84 7 31.68 7 48 C4.69 48 2.38 48 0 48 C0 32.16 0 16.32 0 0 Z " fill="#1B4471" transform="translate(518,246)"/>
<path d="M0 0 C1.98 0 3.96 0 6 0 C6 15.84 6 31.68 6 48 C3.69 48 1.38 48 -1 48 C-1.02526945 41.3247966 -1.04283268 34.64960543 -1.05493164 27.97436523 C-1.05997325 25.70157409 -1.06680637 23.4287862 -1.07543945 21.15600586 C-1.08751261 17.89696449 -1.09322987 14.63796583 -1.09765625 11.37890625 C-1.10281754 10.35599991 -1.10797882 9.33309357 -1.11329651 8.27919006 C-1.11337204 7.33829025 -1.11344757 6.39739044 -1.11352539 5.42797852 C-1.115746 4.59524918 -1.11796661 3.76251984 -1.12025452 2.90455627 C-1 1 -1 1 0 0 Z " fill="#174372" transform="translate(1012,246)"/>
</svg>
